<svg xmlns="http://www.w3.org/2000/svg" viewBox="0 0 87.85 24.55"><defs><style>.cls-1{fill:#057b34;}</style></defs><title>Asset 3</title><g id="Layer_2" data-name="Layer 2"><g id="Layer_1-2" data-name="Layer 1"><g id="Layer_2-2" data-name="Layer 2"><g id="Calque_1" data-name="Calque 1"><path class="cls-1" d="M16.19,5.22A23.53,23.53,0,0,0,9.37,4.8C5,5.2.87,7.8,1,9.8a.46.46,0,0,0,.37.45C2,10.43,4.41,9,5.8,7.75c.12-.1.18,0,0,.13-1,1.38-2.61,2.81-3.72,2.91A2.15,2.15,0,0,1,0,9.16c-.12-2.2,3.55-4.59,8.42-5a18,18,0,0,1,7.77,1C16.28,5.16,16.29,5.24,16.19,5.22Zm-8.32.61a.28.28,0,0,0-.11-.22h0c.25,0,1.15.69,1.17,1A6.9,6.9,0,0,1,8,8.24c-1.39,2.18-2.88,4.45-3.72,6.15a5.38,5.38,0,0,0-.69,1.94c0,.09,0,.16.07.16A11.59,11.59,0,0,0,6,14.29c.09-.11.13-.09.1,0-.43.9-1.49,2.56-1.93,2.6a1.65,1.65,0,0,1-.84-.14c-.48-.27-.73-.55-.75-.92,0-.61.5-1.63,1.81-3.85C4.9,11.09,6,9.29,6.68,8.16A5.78,5.78,0,0,0,7.87,5.83Z"/><path class="cls-1" d="M11.36,8.3a1.4,1.4,0,0,1,1.35,1.05c0,.5-2.26,2.37-4,2.54a3,3,0,0,0-.44,1.26c0,.15.11.2.26.19a1.69,1.69,0,0,0,.66-.22,18.88,18.88,0,0,0,3.91-3s.18,0,.15.08C12,11.78,9.71,13.87,8.76,14c-.47,0-1.47-.68-1.5-1.17a2.52,2.52,0,0,1,.39-1.29,8.9,8.9,0,0,1,2-2.29A3.87,3.87,0,0,1,11.36,8.3ZM8.89,11.61a7.06,7.06,0,0,0,2.21-1.49A2.42,2.42,0,0,0,12,8.83c-.71.08-2.18,1.55-3.08,2.8Z"/><path class="cls-1" d="M12.86,12.79c-.17.37-.22.6-.18.65s0,.1-.11.09-.88-.54-.8-.85a3.92,3.92,0,0,1,.32-.73l.46-.82c.35-.64,1-1.7,1.2-2.1s.32-.8.14-.88a.56.56,0,0,1,.47.08c.48.27.64.61.64.75a9.32,9.32,0,0,1-.82,1.44c.21-.3.47-.59.72-.89a9.32,9.32,0,0,1,2-1.81c.2-.06.56.44.56.93a1.41,1.41,0,0,1-.16.67A.63.63,0,0,0,17.2,9a.59.59,0,0,0-.55-.13A3.56,3.56,0,0,0,14.82,10,9.85,9.85,0,0,0,12.86,12.79Z"/><path class="cls-1" d="M17.31,12.39c-.17.37-.22.6-.18.65s0,.1-.11.09-.88-.54-.8-.85a3.8,3.8,0,0,1,.31-.73l.46-.82c.35-.63,1-1.69,1.2-2.1s.32-.8.14-.88a.57.57,0,0,1,.47.08c.48.27.64.61.64.75A9.24,9.24,0,0,1,18.62,10c.21-.3.47-.59.72-.89a9.23,9.23,0,0,1,2-1.81c.2-.06.56.44.56.92a1.38,1.38,0,0,1-.16.67.62.62,0,0,0-.1-.29.59.59,0,0,0-.56-.13,3.56,3.56,0,0,0-1.83,1.1A9.86,9.86,0,0,0,17.31,12.39Z"/><path class="cls-1" d="M24.73,7.11A1.4,1.4,0,0,1,26.1,8.16c0,.5-2.26,2.37-4,2.54a3,3,0,0,0-.44,1.25c0,.15.11.2.26.19a1.68,1.68,0,0,0,.65-.22,18.86,18.86,0,0,0,3.91-3s.19,0,.15.08c-1.23,1.58-3.54,3.67-4.49,3.76-.47,0-1.47-.68-1.5-1.17A2.51,2.51,0,0,1,21,10.3,8.87,8.87,0,0,1,23,8,3.87,3.87,0,0,1,24.73,7.11Zm-2.47,3.31a7.08,7.08,0,0,0,2.26-1.51,2.42,2.42,0,0,0,.87-1.29c-.77.07-2.24,1.54-3.14,2.8Z"/><path class="cls-1" d="M32.1,11.06h0A19,19,0,0,0,35,8.12c.06-.08.19,0,.15.06-.2.31-.63.9-1.22,1.65a8.87,8.87,0,0,1-2,2,1.29,1.29,0,0,1-.57-.19c-.29-.19-.5-.42-.51-.61a.44.44,0,0,1,0-.16,10.08,10.08,0,0,1,.69-1.49l-.47.52a8.87,8.87,0,0,1-2.43,2.21,1.59,1.59,0,0,1-1.17-1,1.83,1.83,0,0,1,.16-.76c.58-1.35,2.57-3.6,3.89-3.91h.12c.9-.08,1.24.26,1.3.52.77-1.3,1.61-2.69,1.92-3.4.18-.43.25-.77.07-.84a.65.65,0,0,1,.45.08,1.39,1.39,0,0,1,.69.86.14.14,0,0,1,0,.06L33.8,7.54A22.85,22.85,0,0,0,32.1,11.06Zm-3.5.3a.06.06,0,0,0,.06.06h0A11.08,11.08,0,0,0,32.1,8.3,5.31,5.31,0,0,0,32.72,7a.23.23,0,0,0-.26-.18c-1,.09-2.9,2.53-3.47,3.47-.34.67-.44.92-.42,1Z"/><path class="cls-1" d="M38.1,5.9a1.39,1.39,0,0,1,1.35,1.05c0,.5-2.26,2.37-4,2.54A3,3,0,0,0,35,10.75c0,.15.11.2.26.19a1.69,1.69,0,0,0,.65-.22,18.83,18.83,0,0,0,3.91-3s.19,0,.15.08c-1.23,1.58-3.54,3.67-4.49,3.76-.47,0-1.47-.68-1.5-1.17a2.5,2.5,0,0,1,.39-1.29,8.87,8.87,0,0,1,2-2.29A3.86,3.86,0,0,1,38.1,5.9ZM35.63,9.21A7.07,7.07,0,0,0,37.89,7.7a2.45,2.45,0,0,0,.87-1.29c-.79.07-2.25,1.54-3.15,2.8Z"/><path class="cls-1" d="M43.67,8a15.65,15.65,0,0,1,3.23-1.1c.08,0,.06.09,0,.12a23.3,23.3,0,0,0-2.68,1.16c.45.16.86.46.87.75s0,.44-.44.85a5.58,5.58,0,0,1-2.8,1.35,1.18,1.18,0,0,1-1.2-1c.11-.51,1.39-1.45,2.69-2-.57-.15-1.19-.33-1.21-.79,0-.83,1.83-2.09,2.93-2.19a1.1,1.1,0,0,1,1.14.81c0,.47-.89,1-1.17,1-.06,0-.12,0-.09-.05s.83-.89.83-1.08,0,0-.09,0A4.1,4.1,0,0,0,44,6.59c-.67.49-1,1-.91,1.15A1.8,1.8,0,0,0,43.67,8Zm.48.5c0-.09,0-.12-.2-.16-.34.18-.65.37-1,.6a5.69,5.69,0,0,0-1.85,1.63A8.78,8.78,0,0,0,43.39,9.3c.16-.08.78-.52.71-.82Z"/><path class="cls-1" d="M51.71,6.71a5.81,5.81,0,0,1-.78,1.41c-.74,1-2,2.22-3.28,2.34a1.85,1.85,0,0,1-1.29-.5c-.94,1.86-2.39,4.78-1.91,5.3,0,.14-1.32-.4-1.11-1.12a31.68,31.68,0,0,1,2.3-5.06c.52-1,1.44-2.5,1.8-3.12.22-.42.33-.8.14-.88a.48.48,0,0,1,.41.09,1.51,1.51,0,0,1,.56.48,3.12,3.12,0,0,1,1.76-.84c.71-.06,1.51.51,1.54,1a2.71,2.71,0,0,1-.08.64L53,6.19c.06,0,.11.15,0,.17ZM47,9.9c.95-.09,2.31-1.46,3.22-2.74-1.24.38-3.53,2-3.49,2.61,0,.13.16.13.27.12Zm3.31-3.08h.16A2.48,2.48,0,0,0,50.9,5.5a.28.28,0,0,0-.25-.31h-.09a3.55,3.55,0,0,0-1.5.89,10,10,0,0,0-1.73,2.14A9.4,9.4,0,0,1,50.29,6.82Z"/><path class="cls-1" d="M54.3,5a2.28,2.28,0,0,1,1.25-.73,1.41,1.41,0,0,1,1.55,1.2,9.22,9.22,0,0,0,1.49-.16c.13,0,.25,0,0,.17a6.33,6.33,0,0,1-1.48.32c0,1.09-2.08,3.93-3.72,4.08-.95.09-1.84-.31-1.88-1.16C51.4,7.53,53.1,5.5,54.3,5Zm-1.62,4.5c.84-.08,2.77-2.14,3.39-3.62A3,3,0,0,1,55,5.71,5.28,5.28,0,0,0,52.42,9.2C52.42,9.4,52.45,9.53,52.68,9.51Zm3.14-4.92a.7.7,0,0,0-.51.52c0,.25.35.36.91.39A1.1,1.1,0,0,0,56.28,5C56.26,4.69,56.1,4.51,55.82,4.59Z"/><path class="cls-1" d="M57.61,8.72c-.17.37-.22.6-.18.65s0,.1-.11.09-.88-.54-.8-.85a4,4,0,0,1,.31-.73l.46-.81c.35-.64,1-1.7,1.19-2.1s.32-.8.14-.88a.56.56,0,0,1,.47.08c.48.27.64.61.64.75a9.19,9.19,0,0,1-.82,1.44c.21-.3.47-.6.72-.89a9.19,9.19,0,0,1,2-1.81c.2-.06.56.44.56.92a1.42,1.42,0,0,1-.16.67.66.66,0,0,0-.1-.29.6.6,0,0,0-.56-.13,3.56,3.56,0,0,0-1.83,1.1A9.89,9.89,0,0,0,57.61,8.72Z"/><path class="cls-1" d="M62.1,8.3h.05a19.4,19.4,0,0,0,2.92-2.94c.06-.08.15,0,.1.06-.2.31-.63.9-1.22,1.65a8.88,8.88,0,0,1-2,2,1.21,1.21,0,0,1-.56-.21c-.26-.19-.48-.4-.48-.59a.47.47,0,0,1,0-.16A22.54,22.54,0,0,1,62.57,4.9L64,2.5A2.82,2.82,0,0,0,63,3c-.12.14.19.3.33.38s0,0,0,.05a1,1,0,0,1-.81-.32.88.88,0,0,1,.45-1,5.88,5.88,0,0,1,1.58-.46L65,.85c.17-.43.25-.77.08-.84a.65.65,0,0,1,.47.1,1.28,1.28,0,0,1,.64.85.13.13,0,0,1,0,.06l-.3.5a13.69,13.69,0,0,1,3.76.19h0q-1.39.05-2.77.24a11.45,11.45,0,0,0-1.38.22L63.91,4.82A23.46,23.46,0,0,0,62.1,8.3Z"/><path class="cls-1" d="M64.18,10.43A11.47,11.47,0,0,0,65.44,8.3c.15-.37.27-.81,0-.91a.55.55,0,0,1,.41.1,1.22,1.22,0,0,1,.63.82v.06a9.19,9.19,0,0,1-1.74,1.93A2.19,2.19,0,0,1,64.18,10.43Z"/><path class="cls-1" d="M21.4,23.78h0a19.36,19.36,0,0,0,2.92-2.94.06.06,0,1,1,.11.06c-.2.31-.63.9-1.22,1.65a8.92,8.92,0,0,1-2,2,1.21,1.21,0,0,1-.56-.21c-.26-.19-.48-.4-.49-.59a.53.53,0,0,1,0-.17,22.66,22.66,0,0,1,1.66-3.21L23.3,18a2.87,2.87,0,0,0-1,.55c-.12.14.19.3.34.38s0,0,0,.05a1,1,0,0,1-.81-.32.88.88,0,0,1,.45-1,5.78,5.78,0,0,1,1.58-.46l.43-.85c.17-.43.25-.77.07-.84a.64.64,0,0,1,.47.1,1.27,1.27,0,0,1,.64.85.13.13,0,0,1,0,.06l-.3.5a13.69,13.69,0,0,1,3.76.19h0a25.63,25.63,0,0,0-2.77.24,11.15,11.15,0,0,0-1.38.22L23.21,20.3A23.58,23.58,0,0,0,21.4,23.78Z"/><path class="cls-1" d="M27.43,18.62a1.4,1.4,0,0,1,1.35,1.05c0,.5-2.26,2.37-4,2.54a3.05,3.05,0,0,0-.44,1.26c0,.15.11.2.26.19a1.66,1.66,0,0,0,.65-.22,18.87,18.87,0,0,0,3.91-3s.18,0,.15.08c-1.21,1.59-3.55,3.68-4.51,3.78-.47,0-1.47-.68-1.5-1.17a2.52,2.52,0,0,1,.39-1.29,8.89,8.89,0,0,1,2-2.29A3.86,3.86,0,0,1,27.43,18.62ZM25,21.93a7.08,7.08,0,0,0,2.26-1.51,2.41,2.41,0,0,0,.87-1.29c-.75.07-2.22,1.54-3.12,2.8Z"/><path class="cls-1" d="M28.92,23.09c-.17.37-.21.6-.18.65s0,.1-.11.09-.88-.54-.8-.85a3.89,3.89,0,0,1,.32-.73l.46-.82c.35-.64,1-1.69,1.2-2.1s.32-.8.14-.88a.56.56,0,0,1,.47.08,1.12,1.12,0,0,1,.68.77,9.25,9.25,0,0,1-.82,1.44c.21-.3.47-.59.72-.89A9.31,9.31,0,0,1,33,18c.2-.06.56.44.56.92a1.41,1.41,0,0,1-.16.67.65.65,0,0,0-.1-.29.59.59,0,0,0-.56-.13A3.55,3.55,0,0,0,30.9,20.3,9.91,9.91,0,0,0,28.92,23.09Z"/><path class="cls-1" d="M33.37,22.68c-.17.37-.22.6-.18.65s0,.1-.11.09-.88-.54-.8-.85a3.9,3.9,0,0,1,.31-.73l.46-.81c.35-.64,1-1.69,1.19-2.1s.32-.8.14-.88a.56.56,0,0,1,.47.08,1.12,1.12,0,0,1,.64.75,9.21,9.21,0,0,1-.82,1.44c.21-.3.47-.59.72-.89a9.35,9.35,0,0,1,2-1.81c.2-.06.56.44.56.92a1.41,1.41,0,0,1-.16.67.66.66,0,0,0-.1-.29.59.59,0,0,0-.56-.13,3.56,3.56,0,0,0-1.83,1.1A9.92,9.92,0,0,0,33.37,22.68Z"/><path class="cls-1" d="M40.8,17.4a1.4,1.4,0,0,1,1.3,1.06c0,.5-2.26,2.37-4,2.54a3,3,0,0,0-.44,1.26c0,.15.11.2.26.19a1.69,1.69,0,0,0,.65-.22,18.93,18.93,0,0,0,3.91-3s.18,0,.15.08c-1.23,1.58-3.54,3.67-4.49,3.76-.47,0-1.47-.68-1.5-1.17a2.51,2.51,0,0,1,.4-1.29,8.87,8.87,0,0,1,2-2.29A3.88,3.88,0,0,1,40.8,17.4Zm-2.47,3.31a7,7,0,0,0,2.25-1.51,2.41,2.41,0,0,0,.87-1.29c-.76.08-2.23,1.55-3.13,2.8Z"/><path class="cls-1" d="M48.1,21.35h0A19.16,19.16,0,0,0,51,18.41c.06-.08.19,0,.15.06-.2.31-.63.9-1.22,1.65a8.88,8.88,0,0,1-2,2,1.3,1.3,0,0,1-.57-.19,1,1,0,0,1-.51-.61.46.46,0,0,1,0-.17,10.16,10.16,0,0,1,.69-1.49l-.47.52a8.8,8.8,0,0,1-2.43,2.21,1.59,1.59,0,0,1-1.16-1,1.82,1.82,0,0,1,.16-.76c.58-1.35,2.57-3.6,3.89-3.91h.12c.9-.08,1.24.26,1.3.52.77-1.3,1.62-2.69,1.92-3.4.18-.43.25-.77.07-.84a.64.64,0,0,1,.45.08,1.38,1.38,0,0,1,.69.86.14.14,0,0,1,0,.06l-2.27,3.82A22.66,22.66,0,0,0,48.1,21.35Zm-3.5.3a.06.06,0,0,0,.06.06h0a11.07,11.07,0,0,0,3.47-3.07,5.2,5.2,0,0,0,.62-1.26.23.23,0,0,0-.26-.18c-1,.09-2.9,2.53-3.47,3.47-.32.63-.42.87-.4,1Z"/><path class="cls-1" d="M54.1,16.19a1.4,1.4,0,0,1,1.35,1.05c0,.5-2.26,2.37-4,2.54A3,3,0,0,0,51,21c0,.15.11.2.26.19a1.7,1.7,0,0,0,.65-.22,18.91,18.91,0,0,0,3.91-3s.18,0,.15.08c-1.23,1.58-3.54,3.67-4.5,3.76-.47,0-1.47-.68-1.5-1.17a2.5,2.5,0,0,1,.4-1.29,8.89,8.89,0,0,1,2-2.29A3.88,3.88,0,0,1,54.1,16.19ZM51.63,19.5A7.07,7.07,0,0,0,53.88,18a2.46,2.46,0,0,0,.87-1.29c-.71.07-2.17,1.54-3.07,2.8Z"/><path class="cls-1" d="M61.86,18.41A7,7,0,0,0,61,20.18H61a19.6,19.6,0,0,0,2.89-2.88c.06-.08.18,0,.14.07A16.83,16.83,0,0,1,62.85,19c-.54.64-1.66,2-2,2a1.24,1.24,0,0,1-1.1-.94.36.36,0,0,1,0-.1,13.71,13.71,0,0,1,1.13-2.13c.41-.69,1.09-1.68,1.09-1.71h0A9.81,9.81,0,0,0,60,18c-.86,1-2.35,2.81-2.26,3.11h0a.09.09,0,0,1-.11.09c-.11,0-.83-.61-.78-.85a32.58,32.58,0,0,1,2-3.65c.2-.41.32-.8.14-.88a.66.66,0,0,1,.51.11,1.16,1.16,0,0,1,.58.71c0,.2-1,1.61-1.67,2.8.39-.57.91-1.2,1.37-1.74s1.82-2.18,2.24-2.22a1,1,0,0,1,.58.24c.41.29.53.58.52.71a.13.13,0,0,1,0,.06C62.73,17.11,62.41,17.49,61.86,18.41Z"/><path class="cls-1" d="M68.1,16.52a1.14,1.14,0,0,1,.42.6v.05l-.22.3a8,8,0,0,0-1.22,2.16h.05a19.29,19.29,0,0,0,2.92-2.95c.06-.08.18,0,.14.07-.42.7-2.52,3.37-3.12,3.61h0a1.08,1.08,0,0,1-.65-.22c-.24-.19-.49-.48-.48-.69a.3.3,0,0,1,0-.1,11,11,0,0,1,1-1.76A16.18,16.18,0,0,1,65.76,19c-.93.95-1.67,1.66-2,1.69s-1.13-.49-1.16-1a6.28,6.28,0,0,1,1.85-3A5.44,5.44,0,0,1,67,15c.91-.08,1.65.32,1.69,1C68.73,16.12,68.4,16.37,68.1,16.52Zm-.63-.21a.66.66,0,0,1,.45.07,1.19,1.19,0,0,0,.12-.56c0-.24-.11-.4-.31-.38-.63.06-1.73,1.08-2.33,1.76A8.12,8.12,0,0,0,63.56,20s0,.07.09.06c.36,0,3.83-2.85,3.86-3.64a.08.08,0,0,0,0-.08Z"/><path class="cls-1" d="M69.92,19.37a19.47,19.47,0,0,0,2.92-2.94.06.06,0,1,1,.11.06c-.2.31-.63.9-1.22,1.65a8.83,8.83,0,0,1-2,2,1.21,1.21,0,0,1-.56-.21c-.26-.19-.48-.4-.49-.59a.48.48,0,0,1,0-.16A22.89,22.89,0,0,1,70.34,16l1.43-2.4a2.9,2.9,0,0,0-1,.55c-.12.14.19.3.34.38s0,0,0,.05a1,1,0,0,1-.82-.32.87.87,0,0,1,.45-1,5.82,5.82,0,0,1,1.58-.47l.43-.85c.17-.43.25-.77.07-.84a.64.64,0,0,1,.47.1,1.27,1.27,0,0,1,.64.85.15.15,0,0,1,0,.06l-.3.5a13.7,13.7,0,0,1,3.76.19h0a27.61,27.61,0,0,0-2.77.24,11.45,11.45,0,0,0-1.38.22l-1.57,2.65A23.69,23.69,0,0,0,69.92,19.37Z"/><path class="cls-1" d="M77.59,15.67a19.31,19.31,0,0,0-1.77,3.17h.05a19,19,0,0,0,2.91-2.94c.06-.08.18,0,.14.06a18.86,18.86,0,0,1-1.23,1.65,8.51,8.51,0,0,1-1.95,2,1.34,1.34,0,0,1-1.06-.95,8,8,0,0,1,1.08-2.12,23.27,23.27,0,0,1-2.88,3.31h0a1.51,1.51,0,0,1-1.21-1.07,18.85,18.85,0,0,1,2-3.49,2.21,2.21,0,0,0,.33-.67.19.19,0,0,0-.17-.21.47.47,0,0,1,.47.1c.56.41.66.75.66.89a.12.12,0,0,1,0,.06s-.65.86-1,1.37A8.35,8.35,0,0,0,72.81,19s0,.1.08.09a24.77,24.77,0,0,0,3.87-4A1.32,1.32,0,0,0,77,14.3c0-.08,0-.13-.08-.15a.66.66,0,0,1,.47.12,1.22,1.22,0,0,1,.64.82v.06C78.07,15.21,77.8,15.36,77.59,15.67Z"/><path class="cls-1" d="M78.53,18.58c-.17.37-.22.6-.18.65s0,.1-.11.09-.88-.54-.8-.85a3.93,3.93,0,0,1,.31-.73l.46-.82c.35-.64,1-1.7,1.2-2.1s.32-.8.14-.88A.55.55,0,0,1,80,14c.48.27.64.6.64.75a9,9,0,0,1-.83,1.44c.22-.3.47-.59.72-.89a9.31,9.31,0,0,1,2-1.81c.2-.06.56.44.56.92a1.37,1.37,0,0,1-.16.67.63.63,0,0,0-.09-.29.59.59,0,0,0-.56-.13,3.55,3.55,0,0,0-1.83,1.1A9.86,9.86,0,0,0,78.53,18.58Z"/><path class="cls-1" d="M86,13.3a1.4,1.4,0,0,1,1.35,1.05c0,.5-2.26,2.37-4,2.54a3,3,0,0,0-.44,1.26c0,.15.11.2.26.19a1.71,1.71,0,0,0,.66-.22,18.88,18.88,0,0,0,3.91-3s.19,0,.15.08c-1.23,1.58-3.54,3.67-4.49,3.76-.47,0-1.47-.68-1.51-1.17a2.51,2.51,0,0,1,.4-1.29,8.93,8.93,0,0,1,2-2.29A3.84,3.84,0,0,1,86,13.3Zm-2.47,3.31a7.06,7.06,0,0,0,2.26-1.51,2.42,2.42,0,0,0,.87-1.29C85.84,13.88,84.38,15.35,83.48,16.61Z"/></g></g></g></g></svg>