<svg xmlns="http://www.w3.org/2000/svg" viewBox="0 0 89.5 71.12"><defs><style>.cls-1{fill:#7ab51d;}.cls-2,.cls-3{fill:#fff;}.cls-3{fill-rule:evenodd;}</style></defs><title>Asset 3</title><g id="Layer_2" data-name="Layer 2"><g id="Calque_1" data-name="Calque 1"><path class="cls-1" d="M25.94,58.73c-.26-.07-.5-.22-.75-.28a1,1,0,0,0-.29,0,.87.87,0,0,1-.53.26c-.55,0-1-.63-.9-1.5s.56-1.62,1.11-1.66a.78.78,0,0,1,.75.55l.21.05c.75-2.79.46-5.18-1.32-6.73-.06.15-.11.29-.16.43-.41,1.36-.82,2.72-1.24,4.07a2.6,2.6,0,0,1-.31.8c-.83,1.13-.33,2.36-.29,3.55,0,.17.22.34.35.5.38.46.93.85.68,1.59,0,.08.08.21.14.3s.29.36.41.55c.53.82.46,1.13-.43,1.66.94,1.44,1.7,1.54,2.21-.46.34-1,.51-2,.75-3C26.45,59,26.3,58.83,25.94,58.73Z"/><path class="cls-1" d="M29.06,56.56l-.51-2-.2,0c0,.64.07,1.29.11,2Z"/><path class="cls-1" d="M25.89,32.14c.05.44-.11,1.9,0,2.43.27-.13.84-.74,1.09-.86-.3-.41-.69-1.26-.95-1.6Z"/><path class="cls-1" d="M30.63,62.25l-.34,1.31a1.06,1.06,0,0,1,.56.15,1.86,1.86,0,0,0,0-1.43Z"/><path class="cls-1" d="M22.06,41.4c-.05-.47-.19-.72-.91-.57.14,2.8.28,5.62.42,8.4a2.14,2.14,0,0,0,.16-.44A25.93,25.93,0,0,0,22.06,41.4Z"/><path class="cls-1" d="M45.3,64a25.3,25.3,0,0,0-2.47.69,1.57,1.57,0,0,1-.5.1h0c-.71,0-1.23-.5-1.85-.75-.08,0-.11-.19-.16-.29s-.11-.26-.21-.32c-.44-.28-.9-.53-1.34-.79V64c.6.3,1.47.07,2,.83a4.46,4.46,0,0,1-1.16.2H39.4c-1.53-.06-3.05-.12-4.58-.25a3.15,3.15,0,0,1-1-.47.28.28,0,0,1-.09-.26c.12-.3.27-.58.41-.87l.23.06c-.06-.37,0-.89-.22-1.07a1.22,1.22,0,0,1-.39-1.12c0-.4,0-.81,0-1.21a2.41,2.41,0,0,0-.74-1.7c0,.21,0,.34,0,.46,0,.77,0,1.54,0,2.31,0,.35-.08.68-.54.65s-.62.21-.67.63-.19,1.34-.31,2.14a3.26,3.26,0,0,1,.32,1.76c-.11,1.47-1,2.71-1.89,2.78s-1.6-1.06-1.5-2.53a3.27,3.27,0,0,1,1.4-2.63,17.77,17.77,0,0,0,.64-2.92l-2.08-.69c-.14.66-.25,1.26-.41,1.85a5.82,5.82,0,0,1-1.7,3.14,1.93,1.93,0,0,1-2.95-.22,17.44,17.44,0,0,1-1.18-2,1.63,1.63,0,0,0-.5-.58,4,4,0,0,1-1.81-2.16,8.63,8.63,0,0,0-.46-.87A2,2,0,0,1,19,57.54a3.63,3.63,0,0,0,.14-2.3,16.17,16.17,0,0,1-.51-5.14c0-.92.05-1.84,0-2.76,0-2.91-1.18-5.63-1.53-8.49a.28.28,0,0,0,0-.11,2.46,2.46,0,0,1-.22-2,4.84,4.84,0,0,0-.21-3.55,19.83,19.83,0,0,1-1-2.75c-.23-.63-.5-1.25-.69-1.89A2.87,2.87,0,0,1,16.13,25a5.86,5.86,0,0,1,1-.64c.56-.25.73-.58.46-1.17a1.32,1.32,0,0,1,0-.79A10.18,10.18,0,0,0,18,20.9a2.92,2.92,0,0,1,.12-.64A63.7,63.7,0,0,0,6.68,38.8c-.5,1.21-1.09,2.36-1.59,3.56s-.94,2.43-1.49,3.83C2.17,52.73.37,59.37,0,66.31c-.12,2.22.53,3.11,2.56,3.41C17.55,71.91,32,71.89,45.42,67A3,3,0,0,1,45,65.39,3.29,3.29,0,0,1,45.3,64Z"/><path class="cls-1" d="M25.75,46.21c0-.18-.36-.33-.64-.57-.14.89-.27,1.63-.39,2.39l1.06.29C25.78,47.61,25.82,46.9,25.75,46.21Z"/><path class="cls-1" d="M31.35,55.27a1.68,1.68,0,0,0-1.56,1.37c0,.57-.32.56-.73.46-.18,0-.37,0-.59-.08,0,.55-.08,1-.09,1.54s.49.55.89.3a15.91,15.91,0,0,0,2.53-1.77c.28-.27.18-1,.16-1.5C32,55.47,31.57,55.28,31.35,55.27Z"/><path class="cls-1" d="M87.41,1.35C71.77-.69,56.2-1,41.19,4.7A58.86,58.86,0,0,0,20,18.28a3.62,3.62,0,0,1,2.47,0c1.53.53,1.68,2.06,1.38,3.53-.23,1.13-.14,1.59,1,1.93a2.35,2.35,0,0,1,1.75,2c.16.92.34,1.85.44,2.78a6,6,0,0,0,1.38,2.92,5.8,5.8,0,0,0,1.31.95,4.51,4.51,0,0,0,.13-.64q0-2.23,0-4.47a1,1,0,0,0-.07-.33c-.27-.78-.26-1,.42-1.47a2.33,2.33,0,0,1,1.49-.41,10.4,10.4,0,0,1,2.47.87,1.82,1.82,0,0,1,1,2A6.15,6.15,0,0,1,34.45,31a1.17,1.17,0,0,0,.19,1.76,1.43,1.43,0,0,0,1,.51,3.15,3.15,0,0,1,2.27,1.23,18.88,18.88,0,0,1,2.39,4.83,15.38,15.38,0,0,0,2.62,4.15c.94,1.08.9,1.75-.26,2.74.28.17.5.32.72.45A2.4,2.4,0,0,1,44.46,49c0,1.14,0,2.29,0,3.46a2.4,2.4,0,0,1,2,1.91,12.71,12.71,0,0,1,.39,1.33c.45,2.08.88,4.17,1.32,6.25.06.29.35.57.06.86a2.62,2.62,0,0,1-.73.57,1,1,0,0,0-.54.52,3.15,3.15,0,0,1,.36,1.53,3.6,3.6,0,0,1-.12.93A61.83,61.83,0,0,0,64.45,55.84c8.4-7.16,14.19-16.24,18.37-26.3A94.51,94.51,0,0,0,89.41,4.7C89.63,2.94,89.64,1.64,87.41,1.35Z"/><path class="cls-1" d="M39.82,55.88c-.36.36-1.14.21-1.15,1.05l1.82.71c-.11-.63-.19-1.13-.31-1.62C40.16,55.94,39.86,55.84,39.82,55.88Z"/><path class="cls-1" d="M44.25,60.9l.92.31c.06-.45.1-.82.17-1.33C44.88,60.27,44.14,60,44.25,60.9Z"/><path class="cls-1" d="M38.32,57.79a5.75,5.75,0,0,0,1.87,3.45,2.54,2.54,0,0,0-.06-2.13C39.92,58.55,39,58.26,38.32,57.79Z"/><path class="cls-1" d="M39.94,62.27l.14-.11-1.55-1.84A3.43,3.43,0,0,0,39.94,62.27Z"/><path class="cls-1" d="M33.29,53.73l.93,1.11c0-.46-.07-.77-.1-1.15Z"/><path class="cls-1" d="M34.51,57c.06.56.11,1.12.17,1.68l.22,0L34.7,57Z"/><path class="cls-1" d="M39.62,55.12c.13.07.33,0,.57,0l-.1-1.33a5.92,5.92,0,0,0-.66.19c-.26.11-.74.1-.57.52C39,54.77,39.34,55,39.62,55.12Z"/><path class="cls-2" d="M47,63.86a1,1,0,0,1,.54-.52,2.62,2.62,0,0,0,.73-.57c.29-.29,0-.57-.06-.86-.44-2.08-.87-4.17-1.32-6.25a12.71,12.71,0,0,0-.39-1.33,2.4,2.4,0,0,0-2-1.91c0-1.17,0-2.32,0-3.46a2.4,2.4,0,0,0-1.1-2.26c-.23-.13-.45-.28-.72-.45,1.16-1,1.19-1.66.26-2.74a15.38,15.38,0,0,1-2.62-4.15,18.88,18.88,0,0,0-2.39-4.83,3.15,3.15,0,0,0-2.27-1.23,1.43,1.43,0,0,1-1-.51A1.17,1.17,0,0,1,34.45,31,6.15,6.15,0,0,0,35.22,28a1.82,1.82,0,0,0-1-2,10.4,10.4,0,0,0-2.47-.87,2.33,2.33,0,0,0-1.49.41c-.67.43-.68.69-.42,1.47a1,1,0,0,1,.07.33q0,2.24,0,4.47a4.51,4.51,0,0,1-.12.64,5.8,5.8,0,0,1-1.31-.95A6,6,0,0,1,27,28.53c-.1-.93-.28-1.86-.44-2.78a2.35,2.35,0,0,0-1.75-2c-1.12-.35-1.22-.8-1-1.93.31-1.47.16-3-1.38-3.53a3.62,3.62,0,0,0-2.47,0c-.64.65-1.27,1.31-1.88,2a2.92,2.92,0,0,0-.12.64,10.18,10.18,0,0,1-.43,1.47,1.32,1.32,0,0,0,0,.79c.27.59.1.91-.46,1.17a5.86,5.86,0,0,0-1,.64A2.87,2.87,0,0,0,15,28.55c.2.64.47,1.26.69,1.89a19.83,19.83,0,0,0,1,2.75,4.84,4.84,0,0,1,.21,3.55,2.46,2.46,0,0,0,.22,2,.28.28,0,0,1,0,.11c.35,2.86,1.48,5.58,1.53,8.49,0,.92,0,1.84,0,2.76a16.17,16.17,0,0,0,.51,5.14,3.63,3.63,0,0,1-.14,2.3,2,2,0,0,0,.28,1.74,8.63,8.63,0,0,1,.46.87,4,4,0,0,0,1.81,2.16,1.63,1.63,0,0,1,.5.58,17.44,17.44,0,0,0,1.18,2,1.93,1.93,0,0,0,2.95.22,5.82,5.82,0,0,0,1.7-3.14c.16-.59.27-1.19.41-1.85l2.08.69a17.77,17.77,0,0,1-.64,2.92,3.27,3.27,0,0,0-1.4,2.63c-.11,1.47.56,2.6,1.5,2.53s1.78-1.31,1.89-2.78a3.26,3.26,0,0,0-.32-1.76c.12-.79.26-1.72.31-2.14s.2-.66.67-.62.53-.3.54-.65c0-.77,0-1.54,0-2.31,0-.12,0-.25,0-.46a2.41,2.41,0,0,1,.74,1.7c0,.4,0,.81,0,1.21a1.22,1.22,0,0,0,.39,1.13c.22.18.16.71.22,1.07l-.23-.06c-.14.29-.29.57-.41.87a.28.28,0,0,0,.09.26,3.15,3.15,0,0,0,1,.47c1.52.12,3,.19,4.58.25h.18a4.46,4.46,0,0,0,1.16-.2c-.51-.77-1.38-.53-2-.83V62.63c.44.26.9.51,1.34.79.1.06.14.21.21.32s.08.26.16.29c.62.24,1.14.77,1.85.75h0a1.57,1.57,0,0,0,.5-.1A25.3,25.3,0,0,1,45.3,64a3.29,3.29,0,0,0-.3,1.41A3,3,0,0,0,45.42,67q.91-.33,1.81-.69a3.6,3.6,0,0,0,.12-.93A3.15,3.15,0,0,0,47,63.86ZM25.11,45.64c.28.24.62.38.64.57.07.69,0,1.4,0,2.12L24.72,48C24.84,47.27,25,46.53,25.11,45.64Zm-3.37,3.14a2.14,2.14,0,0,1-.16.44c-.14-2.78-.28-5.59-.42-8.4.71-.15.86.11.91.57A25.93,25.93,0,0,1,21.74,48.78Zm4.61,10.62c-.24,1-.42,2-.75,3-.51,2-1.27,1.9-2.21.46.89-.53,1-.84.43-1.66-.12-.19-.28-.37-.41-.55s-.17-.22-.14-.3c.25-.74-.3-1.13-.68-1.59-.13-.16-.35-.33-.35-.5,0-1.19-.54-2.43.29-3.55a2.6,2.6,0,0,0,.31-.8c.42-1.36.83-2.72,1.24-4.07,0-.14.1-.27.16-.43C26,51,26.29,53.37,25.54,56.15l-.21-.05a.78.78,0,0,0-.75-.55c-.56,0-1.05.79-1.11,1.66s.34,1.54.9,1.5a.87.87,0,0,0,.53-.26,1,1,0,0,1,.29,0c.26.05.5.21.75.28S26.45,59,26.35,59.41Zm-.51-24.84c-.07-.53.1-2,0-2.43l.09,0c.26.34.64,1.19.95,1.6C26.68,33.82,26.11,34.44,25.84,34.57Zm2.71,20,.51,2-.6.06c0-.74-.08-1.38-.11-2Zm2.3,9.15a1.06,1.06,0,0,0-.56-.15l.34-1.31.19,0A1.86,1.86,0,0,1,30.85,63.71Zm1-6.62a15.91,15.91,0,0,1-2.53,1.77c-.4.25-.89,0-.89-.3s.06-1,.09-1.54c.22,0,.41,0,.59.08.41.1.68.1.73-.46a1.68,1.68,0,0,1,1.56-1.37c.22,0,.6.2.61.31C32,56.1,32.09,56.82,31.8,57.09Zm1.48-3.36.83,0c0,.38.06.69.1,1.15Zm1.39,4.95c-.06-.56-.11-1.12-.17-1.68l.19,0,.2,1.68ZM39.43,54a5.92,5.92,0,0,1,.66-.19l.1,1.33c-.24,0-.45.06-.57,0-.28-.16-.65-.35-.76-.61C38.69,54.08,39.18,54.09,39.43,54Zm.51,8.28a3.43,3.43,0,0,1-1.41-1.95l1.55,1.84Zm.24-1a5.75,5.75,0,0,1-1.87-3.45c.7.47,1.61.77,1.81,1.32A2.54,2.54,0,0,1,40.18,61.23Zm-1.51-4.31c0-.84.79-.69,1.15-1.05,0,0,.34.06.36.14.12.49.2,1,.31,1.62Zm6.5,4.29-.92-.31c-.11-.87.63-.63,1.09-1C45.27,60.4,45.23,60.76,45.17,61.21Z"/><path class="cls-3" d="M75.36,37.17a9.57,9.57,0,0,0-1-1.38c-.61-.75-1.25-1.48-1.92-2.28.49-.1.86-.16,1.22-.25C74.77,33,75,32.7,75,31.62a5.46,5.46,0,0,1,.32-2.14,2,2,0,0,0-.06-1.85,7.19,7.19,0,0,1-1.06-3.12,1.55,1.55,0,0,0-.49-1,26.56,26.56,0,0,0-6.2-4.12c-1-.52-2.26-.3-2.49,1.14a14,14,0,0,0-.17,1.75c0,1,0,2,0,3.05l-.25.12L63.5,24.25c-.52-.57-.8-1.36-1.75-1.49a5.54,5.54,0,0,1-1.68-.67c-.7-.36-1.38-.76-2-1.18-.14-.09-.19-.31-.26-.48-.67-1.62-1.34-3.24-2-4.87-.12-.3-.06-.66-.17-1s-.43-.86-.57-1.31a3.52,3.52,0,0,0-2.24-2.52c.38-.14.59-.3.76-.28.66.1.82-.31,1-.8a3.05,3.05,0,0,1,.3-.58c.06-.12.18-.24.19-.36,0-.74,0-1.47,0-2.21,0-.36,0-.69-.48-.83A7.21,7.21,0,0,0,53,5.12c-.75,0-1.55-.11-2.05.82a3,3,0,0,0-.26,2c.15,1,.3,1.9-.93,2.54a3.24,3.24,0,0,0-1.63,3.07c0,1.09,0,2.18,0,3.28s0,2.29,0,3.4a6.17,6.17,0,0,1-1.27-3.9c0-.46,0-.93,0-1.38-.07-1-.25-1.92-1.54-1.9.07-.76.75-.35.95-.55.17-.55.31-1,.43-1.44a.86.86,0,0,0,0-.33,6.43,6.43,0,0,1-.13-.7c-.09-1.58,0-1.48-1.24-2a2.21,2.21,0,0,0-3.09,1.89,3.15,3.15,0,0,1-.36,1.32A7.94,7.94,0,0,0,40.73,14a2.49,2.49,0,0,1-1.18,1.85c.23.42.47.83.69,1.26a.58.58,0,0,1,0,.36c-.17.73-.38,1.46-.53,2.19a18.41,18.41,0,0,0-.31,2.22c-.09,1.31-.12,2.63-.17,3.95a3.18,3.18,0,0,0,.06,1.12,2,2,0,0,0,.66.85c.07.06.4-.21.63-.3a1.79,1.79,0,0,1,.45-.05l-.63-3,.2,0a15.73,15.73,0,0,1,.5,1.92c.07.52.25.81.83.84a6.64,6.64,0,0,1-.14,1.09c-.38,1.29-.74,2.59-1.2,3.85-.35,1-.72,1.92-1.09,2.88a19.57,19.57,0,0,1,1.37,3l.1.27.06-.15c.67-1.64,1.3-3.31,1.94-5,.09-.23.17-.47.24-.7.18-.6.36-1.2.54-1.8l.25.05a21.68,21.68,0,0,0,0,3.18c.31,2,.75,4.05,1.18,6.07.2.93.65,1.27,1.5,1a24.91,24.91,0,0,0,2.64-1.13,2,2,0,0,1,.66-.22c.84,0,1.68,0,2.52,0,.18,0,.34-.28.5-.42-.16-.15-.33-.43-.48-.42a1.18,1.18,0,0,1-1.18-.79c.69-.31.46-1,.61-1.52a16.52,16.52,0,0,0,.3-1.87c.36,1,.7,1.85,1,2.71a5,5,0,0,1,.26,1.56c0,.92-.05,1,.88,1s1.79,0,2.7,0c0,.29,0,.5.07.71a3,3,0,0,0,5.91-.26.83.83,0,0,1,1.23-.58,2.93,2.93,0,0,0,3.91-.43l1.35-1.37,1.23,1.66v0a2.37,2.37,0,0,0,.13.78,2.63,2.63,0,0,0-.77-.12,2.58,2.58,0,0,0-2,4.17v0l.08.09a2.44,2.44,0,0,0,2.44.84,2.57,2.57,0,0,0,1.51-.9l.07-.07a2.55,2.55,0,0,0,.39-2.51,2.36,2.36,0,0,0,.57.07,2.39,2.39,0,0,0,2.39-2.38,2.35,2.35,0,0,0-.37-1.26C75.75,38,75.56,37.54,75.36,37.17ZM49.9,30.88A40.77,40.77,0,0,0,49,35.54c-.1.49-.24,1-.38,1.45-.19.65-.4,1.3-.61,2a1.08,1.08,0,0,1-.51-.92,15.82,15.82,0,0,0-1.13-5.49.46.46,0,0,1-.06-.29,4.45,4.45,0,0,0-.43-3.62,4.9,4.9,0,0,1-.27-.71,2.17,2.17,0,0,1-.06-1.78,8.55,8.55,0,0,0,.45-3c.07-1,0-2,0-3,.64.74,1.29,1.55,2,2.3a2.68,2.68,0,0,1,.68,1.29c.36,1.48.77,2.94,1.2,4.4A4.33,4.33,0,0,1,49.9,30.88Zm8.25-8c.09,0,.22.08.29,0,1.12-.65,2,.07,2.88.55a25.84,25.84,0,0,1,3,2.29,1.57,1.57,0,0,1,.26.27,1.17,1.17,0,0,1,.09.28l-.67,0c-1.19,0-2.38.06-3.57.07a.7.7,0,0,1-.5-.17c-.52-.6-1-1.24-1.52-1.84a1.58,1.58,0,0,0-.62-.35c-.56-.21-1.12-.39-1.73-.61A1.76,1.76,0,0,1,58.15,22.87ZM54.9,18.11c.57,1.39,2.06,2.21,2.37,3.8-.72.29-.72.29-2.37-.33ZM61.8,37.54a3.36,3.36,0,0,0-3.39,0,5.73,5.73,0,0,0-.87.67l-.23-.12a1.84,1.84,0,0,1-1.16-1.75,12,12,0,0,0-.67-2.26c-.47-2.14-.93-4.29-1.31-6.45a5.59,5.59,0,0,1,.15-1.84c.14-.82.36-1.63.52-2.34.92.58,1.92,1.19,2.9,1.85.54.37,1,.81,1.63,1.29-.82.35-.68.84-.54,1.38a19,19,0,0,1,.48,2.45c.07.6.23,1,.9,1.16s1.38.32,2.11.49Zm1-1.8c.07-.66.26-2,.32-2.55l3,.67ZM74,37.27A2.38,2.38,0,0,0,71,38.39h0v0l-.52-.48a3.2,3.2,0,0,0,1.74-3.5h.21l1.6,2.12A.72.72,0,0,1,74,37.27Z"/><path class="cls-3" d="M31.58,25.07h0Z"/></g></g></svg>