<svg xmlns="http://www.w3.org/2000/svg" viewBox="0 0 89.5 71.12"><defs><style>.cls-1{fill:#3cb4e3;}.cls-2{fill:#fff;}</style></defs><title>Asset 2</title><g id="Layer_2" data-name="Layer 2"><g id="Calque_1" data-name="Calque 1"><path class="cls-1" d="M87.41,1.35C71.77-.69,56.2-1,41.19,4.7a57.77,57.77,0,0,0-29,23.36A22.36,22.36,0,0,1,16,26.44a6.59,6.59,0,0,1,1.37-.27,8.76,8.76,0,0,0,.93-.15l.14,0c.11,0,.11,0,.13,0,.12-.22.24-.44.37-.66s.37-.65.53-1a4.93,4.93,0,0,1,.86-1.18l.33-.38a19.46,19.46,0,0,1,12.24-7.12,18.34,18.34,0,0,1,8.54.62,19.31,19.31,0,0,1,9,5.81l.28.31c.15.16.3.33.44.5a.61.61,0,0,1,.15.58.63.63,0,0,1-.48.38l-1.38.39-1,.29A1.21,1.21,0,0,1,47,24.13a15,15,0,0,0-9.49-4.7A15.22,15.22,0,0,0,27,22.14,14.8,14.8,0,0,0,22.37,27a7.3,7.3,0,0,0-.83,4.43l.18,1.89a.28.28,0,0,1-.09.23c-.08.08-.27.17-.37.13a5.06,5.06,0,0,1-3-3.23c-.13-.4-.2-.41-.36-.41l-.23,0a9.83,9.83,0,0,0-6.53,4.2,10.4,10.4,0,0,0-1.84,6.1,9.51,9.51,0,0,0,2.15,6.19,9,9,0,0,0,5.78,3.22A13.29,13.29,0,0,0,19.4,50a16.63,16.63,0,0,0,8.7-2.75A55.7,55.7,0,0,0,37.55,40l2.64-2.44c2.93-2.71,7.37-6.8,8-7.4l.06-.06a.82.82,0,0,1,.57-.33.28.28,0,0,1,.22.08.28.28,0,0,1,.08.22,2.2,2.2,0,0,1-.45,1.07l-.08.12C46.68,34.17,35,45.76,34.84,45.87a30.44,30.44,0,0,1-8.29,6,17.86,17.86,0,0,1-7.75,1.83c-.36,0-.73,0-1.1,0a13.06,13.06,0,0,1-8.4-3.53,12.43,12.43,0,0,1-3.7-7.23c-.07-.44-.11-.86-.14-1.28-.12.26-.24.51-.35.77-.5,1.2-.94,2.43-1.49,3.84C2.17,52.73.37,59.37,0,66.31c-.12,2.22.53,3.11,2.56,3.41C25,73,46.28,71.35,64.45,55.84c8.4-7.16,14.19-16.24,18.37-26.3A94.56,94.56,0,0,0,89.41,4.7C89.62,2.94,89.64,1.64,87.41,1.35ZM66.74,47.08a14.08,14.08,0,0,1-7.39,6.26,13.12,13.12,0,0,1-4.66.88h-.22a14.13,14.13,0,0,1-7.16-2c-.29-.17-.42-.2-.6-.09a15,15,0,0,1-4.08,1.5,19.38,19.38,0,0,1-12.07-1c-.31-.13-.47-.31-.49-.53s.12-.39.39-.54a15.6,15.6,0,0,0,1.57-1c.29-.21.58-.41.87-.61a1.43,1.43,0,0,1,1.24-.21,15.79,15.79,0,0,0,4,.53,16.38,16.38,0,0,0,4.8-.74c3.07-.94,5-2.69,5.83-5.35A.41.41,0,0,1,49,44l.09-.07a.28.28,0,0,1,.25-.06.28.28,0,0,1,.19.17,6.29,6.29,0,0,1,.34,4.41c-.18.57-.18.57.36.84a9.86,9.86,0,0,0,6.49.72,9.45,9.45,0,0,0,6.66-5,9.77,9.77,0,0,0-.44-10.57A9.19,9.19,0,0,0,58.82,31l-.34-.16c-.43-.22-.74-.43-.83-.75a1.33,1.33,0,0,1,.29-1,7.54,7.54,0,0,0,.54-1.1l.13-.31A.9.9,0,0,1,60,27.13a15,15,0,0,1,4.38,3,14.3,14.3,0,0,1,3.71,6.42A13.52,13.52,0,0,1,66.74,47.08ZM57.6,18.71C56,16.07,53.27,13.92,46.12,12c10.13-.61,17.76.39,23.34,2.23a60.19,60.19,0,0,1,6.28,17.23C73,27.59,67.34,20.76,57.6,18.71Z"/><path class="cls-2" d="M9.28,50.11a13.06,13.06,0,0,0,8.4,3.53c.37,0,.74,0,1.1,0a17.86,17.86,0,0,0,7.75-1.83,30.44,30.44,0,0,0,8.29-6c.12-.12,11.84-11.7,13.73-14.63l.08-.12a2.2,2.2,0,0,0,.45-1.07.28.28,0,0,0-.08-.22.28.28,0,0,0-.22-.08.82.82,0,0,0-.57.33l-.06.06c-.61.61-5,4.7-8,7.4L37.55,40a55.7,55.7,0,0,1-9.46,7.27A16.63,16.63,0,0,1,19.4,50a13.29,13.29,0,0,1-2.17-.18,9,9,0,0,1-5.78-3.22,9.51,9.51,0,0,1-2.15-6.19,10.4,10.4,0,0,1,1.84-6.1,9.83,9.83,0,0,1,6.53-4.2l.23,0c.16,0,.23,0,.36.41a5.06,5.06,0,0,0,3,3.23c.11,0,.29-.05.37-.13a.28.28,0,0,0,.09-.23l-.18-1.89A7.3,7.3,0,0,1,22.37,27,14.8,14.8,0,0,1,27,22.14a15.22,15.22,0,0,1,10.59-2.7A15,15,0,0,1,47,24.13a1.21,1.21,0,0,0,1.34.36l1-.29,1.38-.39a.63.63,0,0,0,.48-.38.61.61,0,0,0-.15-.58c-.14-.18-.29-.34-.44-.5L50.4,22a19.31,19.31,0,0,0-9-5.81,18.34,18.34,0,0,0-8.54-.62,19.46,19.46,0,0,0-12.24,7.12l-.33.38a4.93,4.93,0,0,0-.86,1.18c-.16.34-.34.66-.53,1s-.25.44-.37.66c0,0,0,0-.12,0l-.14,0a8.76,8.76,0,0,1-.93.15,6.59,6.59,0,0,0-1.37.27,22.36,22.36,0,0,0-3.78,1.62A68.25,68.25,0,0,0,6.68,38.8c-.39.94-.83,1.86-1.24,2.79,0,.42.07.85.14,1.28A12.43,12.43,0,0,0,9.28,50.11Z"/><path class="cls-2" d="M64.36,30.1a15,15,0,0,0-4.38-3,.9.9,0,0,0-1.37.52l-.13.31a7.54,7.54,0,0,1-.54,1.1,1.33,1.33,0,0,0-.29,1c.09.33.4.54.83.75l.34.16a9.19,9.19,0,0,1,4.09,3.45A9.77,9.77,0,0,1,63.34,45a9.45,9.45,0,0,1-6.66,5,9.86,9.86,0,0,1-6.49-.72c-.54-.26-.54-.26-.36-.84a6.29,6.29,0,0,0-.34-4.41.28.28,0,0,0-.19-.17.28.28,0,0,0-.25.06L49,44a.41.41,0,0,0-.15.2C48,46.87,46,48.62,43,49.56a16.38,16.38,0,0,1-4.8.74,15.79,15.79,0,0,1-4-.53,1.43,1.43,0,0,0-1.24.21c-.29.2-.58.4-.87.61a15.6,15.6,0,0,1-1.57,1c-.27.15-.4.33-.39.54s.18.4.49.53a19.38,19.38,0,0,0,12.07,1,15,15,0,0,0,4.08-1.5c.18-.11.3-.09.6.09a14.13,14.13,0,0,0,7.16,2h.22a13.12,13.12,0,0,0,4.66-.88,14.08,14.08,0,0,0,7.39-6.26,13.52,13.52,0,0,0,1.34-10.56A14.3,14.3,0,0,0,64.36,30.1Z"/><path class="cls-2" d="M46.12,12c7.15,2,9.88,4.12,11.49,6.76C67.34,20.76,73,27.59,75.73,31.41a60.19,60.19,0,0,0-6.28-17.23C63.87,12.34,56.25,11.34,46.12,12Z"/></g></g></svg>