<svg xmlns="http://www.w3.org/2000/svg" viewBox="0 0 89.5 71.12"><defs><style>.cls-1{fill:#813137;}.cls-1,.cls-2{fill-rule:evenodd;}.cls-2{fill:#fff;}</style></defs><title>Asset 1</title><g id="Layer_2" data-name="Layer 2"><g id="Calque_1" data-name="Calque 1"><path class="cls-1" d="M3.61,46.2C2.17,52.73.37,59.37,0,66.31c-.12,2.22.53,3.11,2.55,3.41C25,73,46.27,71.35,64.45,55.84c8.4-7.16,14.19-16.24,18.37-26.3A94.59,94.59,0,0,0,89.41,4.7c.21-1.76.23-3.06-2-3.35C71.77-.69,56.2-1,41.19,4.7,24.74,11,13.37,22.56,6.68,38.8c-.5,1.2-1.09,2.36-1.59,3.56S4.15,44.79,3.61,46.2Z"/><path class="cls-2" d="M73.17,36.75a7.75,7.75,0,0,0-6-2.58c-.43,0-.37-.24-.39-.49a21.94,21.94,0,0,0-6.82-14.51c-6.68-6.3-14.57-8.23-23.25-5.27S23,23.18,21.4,32.22a19.56,19.56,0,0,0-.21,4.15.67.67,0,0,1-.27.61,12.54,12.54,0,0,0-4.48,8c-1.23-1.47-2-9.41-1.4-13.68a29.23,29.23,0,0,1,58.13,5.46Z"/><path class="cls-2" d="M22.53,55.23c-4.25-4.6-4.72-11.39-.49-15.51,2.87-2.79,6.36-3.29,10.12-2.3a19.75,19.75,0,0,1,6.93,3.71c2.22,1.7,4.2,3.67,6.33,5.47a58.72,58.72,0,0,0,6.86,5.15c4.54,2.82,9.31,3.9,14.45,1.89.12.05.07.11,0,.15a12.18,12.18,0,0,1-11.65,5.1,26.89,26.89,0,0,1-10.26-3.59c-2.78-1.51-5.42-3.25-8.13-4.88A15.2,15.2,0,0,0,31,48.19a7.15,7.15,0,0,0-8.31,5.54C22.63,54.21,22.6,54.7,22.53,55.23Z"/><path class="cls-2" d="M24,35.13a18.46,18.46,0,0,1,.65-4.8A20,20,0,0,1,63.8,32.4c.1.63.14,1.27.21,1.9,0,.21,0,.34-.25.42a36.75,36.75,0,0,0-6.08,2.73.69.69,0,0,1-.19,0,14.5,14.5,0,0,0-.21-5.08,13.62,13.62,0,0,0-26.77,1.24c-.06.49-.21.64-.71.59a11.47,11.47,0,0,0-3,.12A14.57,14.57,0,0,0,24,35.13Z"/><path class="cls-2" d="M45.74,41.92a2.87,2.87,0,0,1-2.5-.94,28,28,0,0,0-8.93-5.8c-1.22-.46-1.22-.46-1-1.75a10.84,10.84,0,1,1,21,5.29,1.28,1.28,0,0,1-.72.85,20.22,20.22,0,0,1-6.26,2.22C46.82,41.86,46.28,41.88,45.74,41.92Z"/><path class="cls-2" d="M47.38,44.6A22,22,0,0,0,54.9,42c2.36-1.18,4.64-2.51,7-3.61A14,14,0,0,1,66.57,37a6.38,6.38,0,0,1,1.79.09,4.55,4.55,0,0,1,3.82,4.55A9.29,9.29,0,0,1,68,49.71c-3.7,2.67-7.71,2.79-11.81,1a34.46,34.46,0,0,1-7.64-5.08Z"/><path class="cls-2" d="M56.61,61.85c-.49.21-1,.45-1.46.64a29.06,29.06,0,0,1-25.59-1.61,9.19,9.19,0,0,1-3-2.46,4.9,4.9,0,0,1-1.08-4.36c.59-2.28,2.78-3.52,5.38-3.07a11.89,11.89,0,0,1,4.05,1.58c3,1.76,5.83,3.66,8.86,5.3a31.31,31.31,0,0,0,9.52,3.57C54.4,61.63,55.49,61.75,56.61,61.85Z"/></g></g></svg>