<svg xmlns="http://www.w3.org/2000/svg" viewBox="0 0 89.5 71.12"><defs><style>.cls-1{fill:none;}.cls-2{fill:#00793e;}.cls-3,.cls-4{fill:#fff;}.cls-4{fill-rule:evenodd;}</style></defs><title>Asset 5</title><g id="Layer_2" data-name="Layer 2"><g id="Calque_1" data-name="Calque 1"><path class="cls-1" d="M40.66,68.54l-.48.13C40.47,68.7,40.59,68.7,40.66,68.54Z"/><path class="cls-2" d="M87.41,1.35C71.77-.69,56.2-1,41.19,4.7,24.74,11,13.37,22.56,6.68,38.8c-.5,1.21-1.09,2.36-1.59,3.56s-.94,2.43-1.49,3.83C2.17,52.73.37,59.37,0,66.31c-.12,2.22.53,3.11,2.56,3.41,11.76,1.72,23.21,2.08,34.07-.21a9.9,9.9,0,0,1-3.17-2.69,9.58,9.58,0,0,1-1.87-4.05h0a4.85,4.85,0,0,1-.23-1.54c0-1.79-.05-3.59-.08-5.38,0-.33,0-.65,0-1s.09-.25.26-.17l2.13.95c.94.43,1.87.87,2.82,1.28a11.38,11.38,0,0,1,3,1.89c.1.08.18.15.14.32a13.18,13.18,0,0,0-.32,3,.4.4,0,0,1-.06.28,5.12,5.12,0,0,1-.72-.87,10.35,10.35,0,0,0-4.23-3.24c-.24-.09-.46-.22-.7-.32s-.24-.07-.25.13a12.21,12.21,0,0,0,.82,5,10.2,10.2,0,0,0,2.39,3.44,9.94,9.94,0,0,0,3.18,2c.09,0,.19.06.24.15h0l.14,0,.48-.13a2.28,2.28,0,0,0,.1-.46,17.43,17.43,0,0,0,.13-3c0-1.38,0-2.76.07-4.13a9.36,9.36,0,0,1,.74-3,10,10,0,0,1,4.58-4.9,13.5,13.5,0,0,1,3.57-1.16c1.16-.25,2.32-.52,3.48-.78l1.33-.3c.21,0,.21.07.18.21l-.35,1.54c-.19.86-.37,1.73-.57,2.59s-.37,1.87-.68,2.77a10.08,10.08,0,0,1-2.17,3.61,10.19,10.19,0,0,1-4.62,2.83,10.31,10.31,0,0,1-1.65.3c-.16,0-.21-.06-.22-.2a5.59,5.59,0,0,1,.22-2c.05-.18.2-.18.33-.21a9.68,9.68,0,0,0,3.46-1.93,9.87,9.87,0,0,0,3.08-4.76c.17-.59.3-1.18.42-1.78,0-.21,0-.31-.25-.25a18,18,0,0,0-4.1,1.25,9.19,9.19,0,0,0-2.75,2,7.94,7.94,0,0,0-1.81,3.94,27.66,27.66,0,0,0-.23,5.24c0,.6,0,1.21,0,1.81a61.41,61.41,0,0,0,21.56-12c8.4-7.16,14.19-16.24,18.37-26.3A94.52,94.52,0,0,0,89.41,4.7C89.63,2.94,89.64,1.64,87.41,1.35ZM46.73,50.94c0,.14,0,.29-.19.36a10.74,10.74,0,0,0-1.37.65h0c-.32.18-.63.39-.93.6a14.79,14.79,0,0,0-4.14,5.25,2.66,2.66,0,0,1-.38-.5h0a7.62,7.62,0,0,1-1.21-1.47A10.18,10.18,0,0,1,37,48.17,11.57,11.57,0,0,1,38.75,44c.67-1,1.36-2.09,2-3.17.27-.46.61-.89.88-1.35.1-.16.19-.09.27,0l.81,1.27L44,42.9A25.45,25.45,0,0,1,45.86,46,10.29,10.29,0,0,1,46.73,50.94Z"/><path class="cls-3" d="M44,42.9,42.7,40.81l-.81-1.27c-.08-.12-.17-.19-.27,0-.28.46-.62.89-.88,1.35-.63,1.08-1.31,2.12-2,3.17A11.57,11.57,0,0,0,37,48.17a10.18,10.18,0,0,0,1.53,7.67,7.62,7.62,0,0,0,1.21,1.47h0a2.66,2.66,0,0,0,.38.5,14.79,14.79,0,0,1,4.14-5.25c.31-.21.61-.42.93-.6h0a10.74,10.74,0,0,1,1.37-.65c.18-.07.18-.22.19-.36A10.29,10.29,0,0,0,45.86,46,25.45,25.45,0,0,0,44,42.9Z"/><path class="cls-3" d="M40,68.65h0c-.05-.09-.15-.11-.24-.15a9.94,9.94,0,0,1-3.18-2,10.2,10.2,0,0,1-2.39-3.44,12.21,12.21,0,0,1-.82-5c0-.21.1-.2.25-.13s.46.23.7.32a10.35,10.35,0,0,1,4.23,3.24,5.12,5.12,0,0,0,.72.88.4.4,0,0,0,.06-.28,13.18,13.18,0,0,1,.32-3c0-.17,0-.24-.14-.32a11.38,11.38,0,0,0-3-1.89c-.95-.42-1.88-.86-2.82-1.28l-2.13-.95c-.17-.08-.27,0-.26.17s0,.65,0,1c0,1.79,0,3.59.08,5.38a4.85,4.85,0,0,0,.23,1.54h0a9.58,9.58,0,0,0,1.87,4.05,9.9,9.9,0,0,0,3.17,2.69q1.78-.37,3.53-.85Z"/><path class="cls-3" d="M42.91,66.07a27.66,27.66,0,0,1,.23-5.24A7.94,7.94,0,0,1,45,56.89a9.19,9.19,0,0,1,2.75-2,18,18,0,0,1,4.1-1.25c.27-.05.29,0,.25.25-.12.6-.24,1.19-.42,1.78a9.87,9.87,0,0,1-3.08,4.76,9.68,9.68,0,0,1-3.46,1.93c-.12,0-.27,0-.33.21a5.59,5.59,0,0,0-.22,2c0,.13.06.22.22.2a10.31,10.31,0,0,0,1.65-.3,10.19,10.19,0,0,0,4.62-2.83,10.08,10.08,0,0,0,2.17-3.61c.31-.9.46-1.85.68-2.77s.38-1.73.57-2.59L54.83,51c0-.15,0-.26-.18-.21l-1.33.3c-1.16.26-2.32.53-3.48.78a13.5,13.5,0,0,0-3.57,1.16A10,10,0,0,0,41.69,58,9.36,9.36,0,0,0,41,61c-.06,1.38-.09,2.75-.07,4.13a17.43,17.43,0,0,1-.13,3,2.28,2.28,0,0,1-.1.46q1.12-.31,2.24-.66C42.91,67.28,42.92,66.67,42.91,66.07Z"/><path class="cls-4" d="M53.37,13.84A7.75,7.75,0,0,0,47,16.72a.46.46,0,0,1-.75.07c-.27-.22.07-.36.17-.48a8.47,8.47,0,0,1,5.87-3.16c.26,0,.36-.08.21-.35-.24-.46-.43-1-.69-1.41a4.58,4.58,0,0,0-3.58-2.54,4.63,4.63,0,0,0-5.15,5.44,7.6,7.6,0,0,1,.26,1.3,3.28,3.28,0,0,0-3.24,0c.12-.56.24-1,.31-1.47a4.63,4.63,0,0,0-7.77-4A9.12,9.12,0,0,0,31,12.9c-.13.27.07.24.22.25a8,8,0,0,1,3,.82,8.51,8.51,0,0,1,3.07,2.47c.07.09.26.18.1.35a.5.5,0,0,1-.75,0c-.1-.12-.2-.24-.3-.35a7.44,7.44,0,0,0-3.62-2.22,1.24,1.24,0,0,0-.77-.17,5.42,5.42,0,0,0-2.39-.12,8,8,0,0,0-6.34,4.71c-1.6,3.34-3.27,6.66-5,10L17.43,30l.22-.13A10.11,10.11,0,0,1,27.8,28.19a10.23,10.23,0,0,1,6.71,7.73c0,.23.06.47.09.7a1.33,1.33,0,0,0,.27-.79c.36-1.36.74-2.71,1.09-4.07a.88.88,0,0,1,.5-.62c.84-.43,1.65-.9,2.49-1.34a6,6,0,0,1,2.64-1,.15.15,0,0,0,.19,0,4.53,4.53,0,0,1,1.93.56c1.17.65,2.35,1.28,3.53,1.91a.55.55,0,0,1,.29.39c.16.66.34,1.31.52,2l.78,2.92a10.55,10.55,0,0,1,6.74-8.24c3.78-1.45,7.29-.71,10.53,1.77l-.1-.24c-1.32-2.6-2.63-5.21-4-7.81-.72-1.4-1.28-2.89-2.1-4.24A7.54,7.54,0,0,0,57,14.91,7.73,7.73,0,0,0,53.37,13.84Zm9,11.59Zm-43.79,3h0Zm21.26-1.61Zm1.93.4a2.53,2.53,0,1,1,2.54-2.52A2.54,2.54,0,0,1,41.76,27.18Z"/><path class="cls-4" d="M51.16,43.38a5.67,5.67,0,0,0,.91,1.13l.17.2m0,0a9,9,0,0,0,4.49,2.72A9.75,9.75,0,0,0,62.91,29a9.28,9.28,0,0,0-9.24,1.09,9.44,9.44,0,0,0-4,9.61,8.26,8.26,0,0,0,1.39,3.55l.09.15m2.23,0a4.5,4.5,0,0,1-.64-.86A8.17,8.17,0,0,1,51.34,38a7.94,7.94,0,1,1,2.55,5.88l-.51-.44"/><path class="cls-4" d="M18.39,30.24a9.63,9.63,0,0,0-2.54,12.68,9.26,9.26,0,0,0,9.23,4.79,9.4,9.4,0,0,0,8.28-6.19,2.36,2.36,0,0,0,.28-.94,5.46,5.46,0,0,0,.15-.53,9.85,9.85,0,0,0-.56-5.85A9.74,9.74,0,0,0,18.39,30.24Zm-2.05,7.54a7.94,7.94,0,1,1,15.82,1.06,2.89,2.89,0,0,0,0,.38h0a.38.38,0,0,0-.11.35c-.11.39-.23.77-.33,1.16s-.39.73-.46,1.15c-.31.28-.43.69-.72,1s-.42.48-.62.72l-1,.86a.22.22,0,0,0-.17.17,14.36,14.36,0,0,1-2.35,1A8,8,0,0,1,16.33,37.78Z"/><path class="cls-4" d="M59.36,31.69a.8.8,0,0,0-.37.07.7.7,0,0,0-.42.8.71.71,0,0,0,.76.59,4.59,4.59,0,0,1,3,1.15A4.65,4.65,0,0,1,64,37.75c0,.55.33.85.81.8s.64-.36.62-1A6.17,6.17,0,0,0,59.36,31.69Z"/></g></g></svg>