<svg xmlns="http://www.w3.org/2000/svg" viewBox="0 0 89.5 71.12"><defs><style>.cls-1{fill:none;}.cls-2{fill:#f08a00;}.cls-3{fill:#fff;}</style></defs><title>Asset 4</title><g id="Layer_2" data-name="Layer 2"><g id="Calque_1" data-name="Calque 1"><path class="cls-1" d="M19.64,17.57q0,.55,0,1.1Q21.24,17,23,15.52H21.68A1.85,1.85,0,0,0,19.64,17.57Z"/><path class="cls-2" d="M53.17,36.88a2,2,0,1,0,0,4,2,2,0,0,0,2-2A2,2,0,0,0,53.17,36.88Z"/><path class="cls-2" d="M42.63,33.64a2,2,0,0,0,2-2,2,2,0,1,0-4,0A2,2,0,0,0,42.63,33.64Z"/><path class="cls-2" d="M53.14,33.63a2,2,0,0,0,2.05-2,2,2,0,1,0-4-.06A2,2,0,0,0,53.14,33.63Z"/><path class="cls-2" d="M37.32,33.64a2,2,0,0,0,2.06-2,2,2,0,0,0-2-2,2.06,2.06,0,0,0-2,2A2,2,0,0,0,37.32,33.64Z"/><path class="cls-2" d="M42.54,40.93a2,2,0,1,0-1.93-2A2,2,0,0,0,42.54,40.93Z"/><path class="cls-2" d="M58.4,33.64a2,2,0,0,0,2.07-2,2,2,0,0,0-2-2.09,2,2,0,0,0-2,2A2,2,0,0,0,58.4,33.64Z"/><path class="cls-2" d="M37.34,40.93a2,2,0,1,0-2-2A2,2,0,0,0,37.34,40.93Z"/><path class="cls-2" d="M40.27,13.11a1.11,1.11,0,0,0-1.11,1.11,1.1,1.1,0,0,0,.09.44h2a1.1,1.1,0,0,0,.09-.44A1.11,1.11,0,0,0,40.27,13.11Z"/><path class="cls-2" d="M26.46,13.11a1.11,1.11,0,0,0-1.11,1.11,1.08,1.08,0,0,0,.09.44h2a1.08,1.08,0,0,0,.09-.44A1.11,1.11,0,0,0,26.46,13.11Z"/><path class="cls-2" d="M32.1,33.64a2,2,0,0,0,2-2,2,2,0,0,0-2-2,2,2,0,0,0-2,2.06A2,2,0,0,0,32.1,33.64Z"/><path class="cls-2" d="M42.73,61.23H26a4.56,4.56,0,0,1-4.86-4.87q0-15.22,0-30.44a.82.82,0,0,0-.65-.95,2.55,2.55,0,0,1-1.76-2.55c0-.92,0-1.83,0-2.75a63.35,63.35,0,0,0-12,19.12c-.5,1.21-1.09,2.36-1.59,3.56s-.94,2.43-1.49,3.83C2.17,52.73.37,59.37,0,66.31c-.12,2.22.53,3.11,2.56,3.41,19.46,2.85,38.1,2,54.57-8.48C52.34,61.2,47.54,61.23,42.73,61.23Z"/><path class="cls-2" d="M59.7,42.4A1.38,1.38,0,0,0,59,43Q57.58,45.49,56.14,48l-1.83,3.2-.37-.56-.73-1.09-.91-1.34a1,1,0,0,0-1.25-.16.91.91,0,0,0-.31,1.22,7.52,7.52,0,0,0,.41.64l.14.21.66,1c.5.73,1,1.48,1.47,2.24a1.15,1.15,0,0,0,1,.61,1.1,1.1,0,0,0,.94-.64c.87-1.57,1.77-3.13,2.67-4.69l2.78-4.85a.94.94,0,0,0,0-1.06A.85.85,0,0,0,59.7,42.4Z"/><path class="cls-2" d="M54.08,13.11A1.11,1.11,0,0,0,53,14.23a1.1,1.1,0,0,0,.09.44h2a1.1,1.1,0,0,0,.09-.44A1.11,1.11,0,0,0,54.08,13.11Z"/><path class="cls-2" d="M60.47,38.9a2,2,0,1,0-2.08,2A2,2,0,0,0,60.47,38.9Z"/><path class="cls-2" d="M19.64,18.67q0,1.65,0,3.3c0,1.64.65,2.29,2.29,2.29H61.62c.74,0,1.49,0,2.23,0a2,2,0,0,0,2-1.95c0-1.55,0-3.11,0-4.66a2.15,2.15,0,0,0-2.14-2.11c-1.62,0-3.25,0-4.87,0-.15,0-.4-.05-.37.17.1.7-.21,1.44.48,2.06a2.58,2.58,0,0,1,.17,3.5,2.67,2.67,0,0,1-3.42.56,2.52,2.52,0,0,1-.92-3.37,4.05,4.05,0,0,0,.34-2.53c0-.32-.14-.42-.46-.42H45.14c-.18,0-.42,0-.37.24.12.77-.16,1.56.48,2.29A2.52,2.52,0,0,1,45,21.49a2.64,2.64,0,0,1-3.41.18,2.47,2.47,0,0,1-.65-3.37A3.24,3.24,0,0,0,41.41,16c0-.35-.13-.46-.48-.45-.92,0-1.85,0-2.77,0H31.53c-.18,0-.56-.15-.51.21.11.77-.15,1.58.51,2.29a2.53,2.53,0,0,1-.24,3.44,2.64,2.64,0,0,1-3.46.19,2.49,2.49,0,0,1-.6-3.38,3,3,0,0,0,.47-2.2c0-.42-.16-.57-.61-.56-1.37,0-2.75,0-4.13,0Q21.23,17,19.64,18.67Z"/><path class="cls-2" d="M47.87,33.64a2,2,0,0,0,2.06-2,2,2,0,1,0-4.06-.06A2,2,0,0,0,47.87,33.64Z"/><path class="cls-2" d="M37.34,43.91a2,2,0,0,0,0,4.05,2,2,0,1,0,0-4.05Z"/><path class="cls-2" d="M42.64,50.95a2,2,0,1,0,2,2A2,2,0,0,0,42.64,50.95Z"/><path class="cls-2" d="M42.68,43.91a2,2,0,0,0-2.08,2,2,2,0,0,0,4.06,0A2.06,2.06,0,0,0,42.68,43.91Z"/><path class="cls-2" d="M32.1,40.93a2,2,0,0,0,0-4.05,2,2,0,1,0,0,4.05Z"/><path class="cls-2" d="M60.39,46.48a.24.24,0,0,0-.24.13l-.22.38c-.17.3-.33.58-.47.86a1.13,1.13,0,0,0-.07.63c0,.24.07.47.12.71a6.33,6.33,0,0,1,.15,1.24,5.24,5.24,0,0,1-4.32,5.05,5.42,5.42,0,0,1-1,.09,5.3,5.3,0,0,1-4.84-3.15,5.17,5.17,0,0,1-.43-2.66A5.3,5.3,0,0,1,54.33,45a5.2,5.2,0,0,1,.7,0c.31,0,.63.12,1,.19l.48.11a.27.27,0,0,0,.29-.13l.65-1.11a.28.28,0,0,0,0-.21.26.26,0,0,0-.14-.16,6.52,6.52,0,0,0-2.9-.65A7.28,7.28,0,0,0,49,45.41a7.17,7.17,0,0,0-1.21,7.77l.14.25a6.83,6.83,0,0,0,6.12,4h.34a6.87,6.87,0,0,0,6.41-4,7.09,7.09,0,0,0-.18-6.89A.26.26,0,0,0,60.39,46.48Z"/><path class="cls-2" d="M49.93,38.86a2,2,0,1,0-2,2.07A2,2,0,0,0,49.93,38.86Z"/><path class="cls-2" d="M87.41,1.35C71.77-.69,56.2-1,41.19,4.7a62.09,62.09,0,0,0-11.93,6.05,4.67,4.67,0,0,1,1.44,2.6c.27,1.22.27,1.22,1.52,1.22,1,0,2.07,0,3.11,0,.44,0,.59-.14.64-.55a6.09,6.09,0,0,1,.66-2,4,4,0,0,1,4.05-2.24,3.84,3.84,0,0,1,3.55,2.86,10.24,10.24,0,0,1,.33,1.45c.05.32.15.46.51.46,1.37,0,2.75,0,4.13,0,.31,0,.42-.1.48-.41a7.1,7.1,0,0,1,.63-2,4.13,4.13,0,0,1,7.74.75c0,.15.08.3.12.46.26,1.18.26,1.18,1.44,1.18s2.61,0,3.92,0a3.16,3.16,0,0,1,3.29,3.28c0,1.44,0,2.89,0,4.33A2.81,2.81,0,0,1,65,25c-.51.17-.55.44-.55.88,0,10,0,20,0,30l0,0c8.4-7.16,14.19-16.24,18.37-26.3A94.52,94.52,0,0,0,89.41,4.7C89.63,2.94,89.64,1.64,87.41,1.35Z"/><path class="cls-2" d="M26.83,33.64a2,2,0,0,0,0-4,2.06,2.06,0,0,0-2.06,2A2,2,0,0,0,26.83,33.64Z"/><path class="cls-2" d="M30.06,45.81a2,2,0,1,0,4,.14,2,2,0,0,0-4-.14Z"/><path class="cls-2" d="M26.81,40.92a2,2,0,1,0,0-4,2,2,0,0,0,0,4Z"/><path class="cls-2" d="M32.17,50.95A2,2,0,1,0,32,55a2,2,0,0,0,.13-4.05Z"/><path class="cls-2" d="M37.4,50.95a2,2,0,1,0,0,4,2,2,0,0,0,2-2A2,2,0,0,0,37.4,50.95Z"/><path class="cls-2" d="M26.75,43.91a2,2,0,0,0,0,4,2,2,0,0,0,2.06-2A2.06,2.06,0,0,0,26.75,43.91Z"/><path class="cls-2" d="M26.84,50.95a2,2,0,1,0,0,4.05,2,2,0,0,0,0-4.05Z"/><path class="cls-3" d="M65,25a2.81,2.81,0,0,0,1.86-2.79c0-1.44,0-2.89,0-4.33a3.16,3.16,0,0,0-3.29-3.28c-1.31,0-2.62,0-3.92,0s-1.18,0-1.44-1.18c0-.15-.08-.3-.12-.46a4.13,4.13,0,0,0-7.74-.75,7.1,7.1,0,0,0-.63,2c-.06.31-.17.41-.48.41-1.37,0-2.75,0-4.13,0-.36,0-.46-.14-.51-.46a10.24,10.24,0,0,0-.33-1.45,3.84,3.84,0,0,0-3.55-2.86,4,4,0,0,0-4.05,2.24A6.09,6.09,0,0,0,36,14c-.05.41-.21.56-.64.55-1,0-2.07,0-3.11,0-1.25,0-1.25,0-1.52-1.22a4.67,4.67,0,0,0-1.44-2.6A56.77,56.77,0,0,0,23,15.52c1.38,0,2.76,0,4.13,0,.45,0,.59.14.61.56a3,3,0,0,1-.47,2.2,2.49,2.49,0,0,0,.6,3.38,2.64,2.64,0,0,0,3.46-.19A2.53,2.53,0,0,0,31.53,18c-.66-.71-.4-1.52-.51-2.29-.05-.37.33-.21.51-.21h6.63c.93,0,1.85,0,2.77,0,.35,0,.48.1.48.45a3.24,3.24,0,0,1-.49,2.33,2.47,2.47,0,0,0,.65,3.37A2.64,2.64,0,0,0,45,21.49a2.52,2.52,0,0,0,.27-3.43c-.64-.73-.36-1.53-.48-2.29,0-.27.19-.24.37-.24h9.54c.32,0,.45.1.46.42a4.05,4.05,0,0,1-.34,2.53,2.52,2.52,0,0,0,.92,3.37,2.67,2.67,0,0,0,3.42-.56,2.58,2.58,0,0,0-.17-3.5c-.69-.62-.38-1.37-.48-2.06,0-.22.22-.17.37-.17,1.62,0,3.25,0,4.87,0a2.15,2.15,0,0,1,2.14,2.11c0,1.55,0,3.11,0,4.66a2,2,0,0,1-2,1.95c-.74,0-1.49,0-2.23,0H21.93c-1.64,0-2.29-.65-2.29-2.29q0-1.65,0-3.3l-1,1c0,.92,0,1.83,0,2.75A2.55,2.55,0,0,0,20.46,25a.82.82,0,0,1,.65.95q0,15.22,0,30.44A4.56,4.56,0,0,0,26,61.23H42.73c4.8,0,9.61,0,14.41,0a64.19,64.19,0,0,0,7.29-5.38c0-10,0-20,0-30C64.41,25.41,64.45,25.14,65,25ZM27.48,14.66h-2a1.08,1.08,0,0,1-.09-.44,1.11,1.11,0,1,1,2.22,0A1.08,1.08,0,0,1,27.48,14.66Zm13.81,0h-2a1.1,1.1,0,0,1-.09-.44,1.11,1.11,0,1,1,2.22,0A1.1,1.1,0,0,1,41.29,14.66Zm13.81,0h-2a1.1,1.1,0,0,1-.09-.44,1.11,1.11,0,1,1,2.22,0A1.1,1.1,0,0,1,55.11,14.66Zm5.6,28.08a.94.94,0,0,1,0,1.06L58,48.65c-.9,1.56-1.79,3.12-2.67,4.69a1.1,1.1,0,0,1-.94.64,1.15,1.15,0,0,1-1-.61c-.47-.76-1-1.51-1.47-2.24l-.66-1-.14-.21a7.52,7.52,0,0,1-.41-.64.91.91,0,0,1,.31-1.22,1,1,0,0,1,1.25.16l.91,1.34.73,1.09.37.56L56.14,48Q57.59,45.5,59,43a1.38,1.38,0,0,1,.65-.56A.85.85,0,0,1,60.71,42.74Zm-2.31-1.82a2,2,0,1,1,2.08-2A2,2,0,0,1,58.39,40.92Zm.06-11.33a2,2,0,0,1,2,2.09,2,2,0,0,1-2.07,2,2,2,0,0,1-2-2A2,2,0,0,1,58.45,29.59Zm-5.29,0a2,2,0,0,1,2,2.08,2,2,0,0,1-4-.06A2,2,0,0,1,53.17,29.59Zm2,9.36a2,2,0,0,1-2,2,2,2,0,1,1,2-2ZM42.6,29.59a2,2,0,0,1,2.06,2.06,2,2,0,0,1-4,0A2,2,0,0,1,42.6,29.59Zm.08,7.29a2,2,0,1,1-2.08,2A2,2,0,0,1,42.68,36.87Zm-5.32-7.29a2,2,0,0,1,2,2,2,2,0,0,1-2.06,2,2,2,0,0,1-2-2A2.06,2.06,0,0,1,37.36,29.59Zm0,7.29a2,2,0,1,1-2.08,2A2,2,0,0,1,37.41,36.87Zm-5.3-7.28a2,2,0,0,1,2,2,2,2,0,0,1-2,2,2,2,0,0,1-2-2A2,2,0,0,1,32.11,29.59Zm0,7.28a2,2,0,0,1,0,4.05,2,2,0,1,1,0-4.05Zm2,9.08a2,2,0,1,1-4-.14,2,2,0,0,1,4,.14ZM26.85,29.59a2,2,0,1,1-2.06,2A2.06,2.06,0,0,1,26.85,29.59Zm-.05,7.28a2,2,0,1,1,0,4,2,2,0,0,1,0-4Zm0,18.13a2,2,0,1,1,0-4.05,2,2,0,0,1,0,4.05Zm0-7a2,2,0,1,1,2.06-2A2,2,0,0,1,26.79,48ZM32,55a2,2,0,1,1,2.07-2A2,2,0,0,1,32,55Zm5.31,0a2,2,0,1,1,2-2A2,2,0,0,1,37.35,55Zm0-7a2,2,0,1,1,2-2A2.06,2.06,0,0,1,37.35,48Zm5.31,7a2,2,0,1,1,2-2A2,2,0,0,1,42.66,55Zm0-7a2,2,0,0,1-2-2,2,2,0,1,1,2,2ZM47.9,29.59a2,2,0,0,1,2,2.08,2,2,0,0,1-4.06-.06A2.05,2.05,0,0,1,47.9,29.59Zm-2,9.32a2,2,0,1,1,2,2A2,2,0,0,1,45.87,38.91Zm14.94,14.6a6.87,6.87,0,0,1-6.41,4h-.34a6.83,6.83,0,0,1-6.12-4l-.14-.25A7.17,7.17,0,0,1,49,45.41,7.28,7.28,0,0,1,54.39,43a6.52,6.52,0,0,1,2.9.65.26.26,0,0,1,.14.16.28.28,0,0,1,0,.21l-.65,1.11a.27.27,0,0,1-.29.13L56,45.2c-.33-.08-.64-.15-1-.19a5.2,5.2,0,0,0-.7,0,5.3,5.3,0,0,0-5.25,4.81,5.17,5.17,0,0,0,.43,2.66,5.3,5.3,0,0,0,4.84,3.15,5.42,5.42,0,0,0,1-.09,5.24,5.24,0,0,0,4.32-5.05,6.33,6.33,0,0,0-.15-1.24c0-.24-.09-.47-.12-.71a1.13,1.13,0,0,1,.07-.63c.14-.29.3-.56.47-.86l.22-.38a.24.24,0,0,1,.24-.13.26.26,0,0,1,.23.14A7.09,7.09,0,0,1,60.81,53.52Z"/></g></g></svg>