<svg xmlns="http://www.w3.org/2000/svg" viewBox="0 0 89.5 71.12"><defs><style>.cls-1{fill:none;}.cls-2{fill:#33a38e;}.cls-3{fill:#fff;}</style></defs><title>Asset 1</title><g id="Layer_2" data-name="Layer 2"><g id="Calque_1" data-name="Calque 1"><path class="cls-1" d="M80.86,34.06l0-.07-.07.15Z"/><path class="cls-2" d="M12.29,33.65a16.36,16.36,0,0,0,6.35-1.95,23.94,23.94,0,0,0,5.12-3.58c.37-.34.6-.14.85.14A24.22,24.22,0,0,0,30,32.51a14.44,14.44,0,0,0,18-2.16,19.74,19.74,0,0,0,1.83-1.88c.53-.68.85-.53,1.35,0a19,19,0,0,0,7,4.9c4.93,2,9.51,1.12,13.81-1.81a24.22,24.22,0,0,0,3.76-3.25c.42-.44.68-.42,1.16-.07A35.65,35.65,0,0,0,82,31.45q.42-.95.82-1.91A94.51,94.51,0,0,0,89.41,4.7c.22-1.76.23-3.06-2-3.35C71.77-.69,56.2-1,41.19,4.7A58.1,58.1,0,0,0,9.08,33.59,16.91,16.91,0,0,0,12.29,33.65Z"/><path class="cls-2" d="M75.49,41.2c.61-.18,1.2-.39,1.78-.61q.83-1.38,1.6-2.79c-.25.14-.51.29-.77.41-4.16,1.88-8.44,2.74-13,1.53-.21-.06-.42-.12-.63-.19a2,2,0,0,1-.6-.31,20.67,20.67,0,0,0,9-.69,22.55,22.55,0,0,0,7.86-4.38l.07-.15a.27.27,0,0,0-.07-.12c-1.66-1-1.66-1-3.22.16A17.47,17.47,0,0,1,62,37.36a2.54,2.54,0,0,0-2.54.64,19.59,19.59,0,0,1-10.32,4.1c-.06,0-.14-.11-.31-.25a28.35,28.35,0,0,0,4.91-1.93,23.51,23.51,0,0,0,4.4-3c.46-.4.42-.52-.12-.89-1.21-.83-1.94.2-2.62.69A22.94,22.94,0,0,1,47,40.4a17,17,0,0,1-8.45-.28,4.06,4.06,0,0,1-.52-.19s-.07-.09-.14-.2a23.13,23.13,0,0,0,4.86,0,20.35,20.35,0,0,0,11.5-4.84c.46-.39.62-.6,0-1-1.3-.84-1.26-.84-2.5.1-6,4.54-12.41,5.26-19.27,2.25a8.81,8.81,0,0,1-1.76-.89,1.72,1.72,0,0,0-2.32.13,22.06,22.06,0,0,1-11.25,4.07,20.05,20.05,0,0,1-6.23-.79,1.13,1.13,0,0,1,1-.23,20.76,20.76,0,0,0,6.62-.45A22.38,22.38,0,0,0,27,33.94c.51-.38.51-.6,0-1a1.5,1.5,0,0,0-2.21-.09C19.58,36.3,14,37.73,8,35.79q-.69,1.48-1.32,3c-.5,1.21-1.09,2.36-1.59,3.56s-.94,2.43-1.49,3.83C2.17,52.73.37,59.37,0,66.31c-.12,2.22.53,3.11,2.56,3.41C25,73,46.28,71.35,64.45,55.84A61.58,61.58,0,0,0,76.77,41.39a22.42,22.42,0,0,1-2.27.28A1.67,1.67,0,0,1,75.49,41.2Z"/><path class="cls-3" d="M24.77,32.81A1.5,1.5,0,0,1,27,32.9c.5.44.5.66,0,1a22.38,22.38,0,0,1-8.38,4.15,20.76,20.76,0,0,1-6.62.45,1.13,1.13,0,0,0-1,.23,20.05,20.05,0,0,0,6.23.79A22.06,22.06,0,0,0,28.41,35.5a1.72,1.72,0,0,1,2.32-.13,8.81,8.81,0,0,0,1.76.89c6.86,3,13.29,2.29,19.27-2.25,1.24-.94,1.2-.94,2.5-.1.63.41.46.62,0,1a20.35,20.35,0,0,1-11.5,4.84,23.13,23.13,0,0,1-4.86,0c.07.1.09.18.14.2a4.06,4.06,0,0,0,.52.19A17,17,0,0,0,47,40.4a22.94,22.94,0,0,0,8.44-3.7c.68-.49,1.41-1.52,2.62-.69.54.37.58.49.12.89a23.51,23.51,0,0,1-4.4,3,28.35,28.35,0,0,1-4.91,1.93c.17.14.25.26.31.25A19.59,19.59,0,0,0,59.51,38,2.54,2.54,0,0,1,62,37.36,17.47,17.47,0,0,0,77.54,34c1.56-1.2,1.56-1.2,3.22-.16a.27.27,0,0,1,.07.12c.4-.84.8-1.69,1.18-2.55a35.65,35.65,0,0,1-5.06-3.2c-.47-.36-.74-.37-1.16.07A24.22,24.22,0,0,1,72,31.57c-4.29,2.93-8.88,3.78-13.81,1.81a19,19,0,0,1-7-4.9c-.5-.55-.82-.7-1.35,0A19.74,19.74,0,0,1,48,30.34a14.44,14.44,0,0,1-18,2.16,24.22,24.22,0,0,1-5.34-4.25c-.26-.27-.48-.48-.85-.14a23.94,23.94,0,0,1-5.12,3.58,16.36,16.36,0,0,1-6.35,1.95,16.91,16.91,0,0,1-3.21-.06c-.37.73-.74,1.46-1.08,2.2C14,37.73,19.58,36.3,24.77,32.81Z"/><path class="cls-3" d="M63.91,39.22a2,2,0,0,0,.6.31c.21.07.42.13.63.19,4.52,1.21,8.8.36,13-1.53.27-.12.52-.27.77-.41q1-1.79,1.88-3.65a22.55,22.55,0,0,1-7.86,4.38A20.67,20.67,0,0,1,63.91,39.22Z"/><path class="cls-3" d="M75.49,41.2a1.67,1.67,0,0,0-1,.47,22.42,22.42,0,0,0,2.27-.28l.5-.81C76.69,40.8,76.1,41,75.49,41.2Z"/><circle class="cls-3" cx="31.98" cy="65.03" r="1.48" transform="translate(-4.14 2.21) rotate(-3.71)"/><circle class="cls-3" cx="38.53" cy="59.92" r="2.48" transform="translate(-3.77 2.6) rotate(-3.68)"/><circle class="cls-3" cx="26.11" cy="51.3" r="1.07" transform="matrix(1, -0.06, 0.06, 1, -3.27, 1.8)"/><circle class="cls-3" cx="33.97" cy="50.01" r="1.99" transform="translate(-3.15 2.29) rotate(-3.69)"/><circle class="cls-3" cx="41.01" cy="52" r="1.53" transform="translate(-3.27 2.75) rotate(-3.7)"/><circle class="cls-3" cx="54.34" cy="50.01" r="2.14" transform="translate(-3.12 3.62) rotate(-3.71)"/><circle class="cls-3" cx="48.06" cy="47.77" r="1.55" transform="translate(-2.97 3.19) rotate(-3.68)"/><circle class="cls-3" cx="41.01" cy="44.67" r="1.55" transform="translate(-2.78 2.73) rotate(-3.68)"/><circle class="cls-3" cx="47.52" cy="55.4" r="1.02" transform="matrix(1, -0.07, 0.07, 1, -3.51, 3.21)"/></g></g></svg>