<svg xmlns="http://www.w3.org/2000/svg" xmlns:xlink="http://www.w3.org/1999/xlink" x="0px" y="0px"
	 viewBox="0 0 71.1 71.1" style="enable-background:new 0 0 71.1 71.1;" xml:space="preserve">
<path fill="#ffffff" d="M48.6,65.1C48.3,65,48,64.9,47.7,65c-1.7,0.2-2.9-0.8-4.2-1.6c-0.2-0.2-0.3-0.4-0.4-0.7c0-1.5,0-1.5-1.7-1.8
	c-0.3-3.9-0.6-7.7,0.4-11.7l-0.7-0.5v-0.1l0.9,0.2c0.1-0.1,0.1-0.2,0.1-0.2c-0.2-3.8-0.3-7.7-0.8-11.5c-0.4-3.5-1-7-0.3-10.7
	c1.6,0,3.3,0,4.9,0c0.4,0,0.8-0.1,1.2-0.2l1.7,1c0.2,4.1,0.4,9,0.7,14.1h-0.2c-0.1,0-0.2,0.2-0.2,0.3v0.2c0,0.1,0.1,0.3,0.3,0.3h0.2
	c0.1,3.3,0.3,6.6,0.5,9.7h-0.2c-0.1,0-0.2,0.2-0.2,0.3l0,0v0.2c0,0.1,0.1,0.3,0.2,0.3h0.2c0.1,3,0.3,6,0.4,8.6h-0.3
	c-0.1,0-0.2,0.1-0.2,0.2l0,0v0.1c0,0.1,0.1,0.2,0.2,0.2h0.3c0,0.1,0,0.2,0,0.3h0.1v-0.3h0.3c0.1,0,0.2-0.1,0.2-0.2v-0.1
	c0-0.1-0.1-0.2-0.2-0.2h-0.3c0-0.7,0-1.3,0-2c0-1.6-0.1-4-0.2-6.6h0.3c0.1,0,0.2-0.2,0.2-0.3v-0.2c0-0.1-0.1-0.3-0.2-0.3h-0.3
	c-0.1-3.4-0.2-6.9-0.3-9c0-0.3,0-0.5,0-0.8h0.2c0.1,0,0.2-0.2,0.2-0.3v-0.2c0-0.1-0.1-0.3-0.3-0.3h-0.1c-0.1-4.3-0.2-8.7-0.3-13
	c0-0.7-0.2-1.5,0.7-2s0.6-2.7-0.1-3.3c-0.2-0.1-0.2-0.4-0.4-0.6c-0.1-0.2-0.5-0.7-0.6-0.7c-0.4,0.1-0.7,0.3-0.9,0.7
	c-0.2,1.1-1.3,1.9-2.5,1.7c0,0,0,0-0.1,0c-1.4-0.3-2.8-0.7-4.1-1.2c-0.2-0.1-0.4-0.3-0.4-0.6c-0.3-2.1-0.5-4.2-0.8-6.3
	c-0.4-1.2,0-2.6,0.9-3.5l-2.8-2.6l0.1-0.3l3.2,1.2c0.7-1.2,1.3-2.3,1.9-3.4C44,7.2,44,7,44,6.9c-0.2-1.5-0.4-3.1-0.6-4.6
	c-0.1-0.5-0.1-1-0.2-1.6C42,0.3,40.6,1,39.4-0.1c-0.9,0.1-1.5,1.6-2.6,0.9l-1,0.9l0.1,0.1c-0.1,0.6-0.2,1.1-0.3,1.7
	c0,1.4,0.2,2.8,0.3,4.3c-1.3-0.1-1.8,0.4-1.3,2c-0.8-0.5-1.3-0.9-1.8-1.2C31.2,7.8,29.6,7,28,6.3c-0.9-0.4-1.9-0.1-2.5,0.6
	c-1.4,1.5-2.3,3.3-2.7,5.3c0,0.2,0.2,0.6,0.4,0.8c0.5,0.2,1,0.5,1.5,0.8h-1.8c-0.7,3.7-1.5,7.4-0.1,11.2c-0.4,0.2-0.7,0.3-1,0.4
	c-1.3,0.6-2,2-1.7,3.5c0.4,1.4,1.7,2.4,3.2,2.3c0.4,0.1,0.8,0.2,1.2,0.4c0.4,0.2,0.9,0.4,1.3,0.5c0.8,0.1,1.7,0.2,2.5,0.3
	c0.1,0.7,0.2,1.2,0.2,1.8c0.2,2.6,1.1,5.2,0.7,7.9c0,0.3,0.3,0.6,0.5,0.9c-0.1,0-0.4,0.1-0.4,0.3c-0.6,1.9-1.9,3.6-1.4,5.6
	c0.4,1.5,0.1,3.1-0.8,4.4c-1.5,2.3-1.2,5.1-1.5,7.7c0,0.6-0.1,1.2-0.2,1.8c-0.2,0.4-0.4,0.9-0.7,1.3c-0.4,1.2-0.9,2.2-1.3,3.4
	c0,0.3,0,0.6,0,0.8c-0.2,1.5-0.2,1.5,1.3,1.7c1.4,0.1,2.7,0.4,4,0.9c1.9,0.5,3.9,0.3,5.6-0.6c0.5-0.2,0.7-0.8,0.5-1.3
	c-0.1-0.3-0.3-0.4-0.6-0.5c-0.4-0.2-0.9-0.3-1.3-0.3c-1-0.1-2-0.6-2.6-1.4c-0.6-0.4-0.9-1.2-0.6-1.9c0.4-1-0.4-1.3-1.4-1.6
	c0.4-1.3,0.7-2.5,1.2-3.7c1-2.4,2.1-4.7,3.2-7.1c0.1-0.2,0-0.6,0-0.9l2.6,0.8l1.4-2.2c0.1,0.2,0.1,0.4,0.1,0.7
	c-0.4,2.3-0.2,4.6,0.6,6.8c0.2,0.7,0.4,1.3,0.6,2c0.5,1.3,0.6,2.7,0.3,4c-0.2,1.3-0.3,2.6-0.1,3.9c0,0.6,0.3,0.8,0.9,0.8
	c0.6,0,1.2,0,1.8-0.2c0.9-0.4,1.9-0.5,2.9-0.4c0.5,0,1,0,1.5-0.1c1.4-0.6,2.8-1.3,4.2-2C49,65.3,48.8,65.2,48.6,65.1z"/>
</svg>
