<svg xmlns="http://www.w3.org/2000/svg" viewBox="0 0 89.5 71.12"><defs><style>.cls-1{fill:#9f9181;fill-rule:evenodd;}.cls-2{fill:#fff;}</style></defs><title>Asset 2</title><g id="Layer_2" data-name="Layer 2"><g id="Calque_1" data-name="Calque 1"><path class="cls-1" d="M3.61,46.2C2.17,52.73.37,59.37,0,66.31c-.12,2.22.53,3.11,2.56,3.41C25,73,46.28,71.35,64.45,55.84c8.4-7.16,14.19-16.24,18.37-26.3A94.51,94.51,0,0,0,89.41,4.7c.22-1.76.23-3.06-2-3.35C71.77-.69,56.2-1,41.19,4.7,24.74,11,13.37,22.56,6.68,38.8c-.5,1.21-1.09,2.36-1.59,3.56S4.15,44.79,3.61,46.2Z"/><path class="cls-2" d="M78.9,37.72q.83-1.53,1.61-3.11-2.63-.41-5.21-.73c-1.63-1.27-3.14-2.48-4.57-3.64V11.36h-.22V6.22h1.39L69.47,4.5V4h1.2L67,1.61,63.41,4.08h1.17V4.5L61.91,6.22h1.44v5.14h-.22V23.83c-5.44-4.77-8.49-7.87-9.91-9C50.83,13,49,11.93,44,16.72c-1.71,1.63-4,3.77-6.28,5.91C36.8,22,36,21.4,35.33,20.87,33,19.13,31.53,18,29.8,18c-1.91,0-4.09,1.94-7.48,5.09-.8.74-1.57,1.46-2.26,2.06-1.49-.66-3-1.27-4.44-1.86q-1.05,1.34-2,2.75,3,1.16,6,2.51l.17.08a151,151,0,0,1,15.21,8l-.3.11c-8.27-1.18-19.17-.75-27.21.37-.26.59-.53,1.17-.78,1.78s-.53,1.21-.81,1.81c7.76-1.3,19.51-1.94,28.1-.73a1.66,1.66,0,0,0,1,.14A138.36,138.36,0,0,1,60.15,46.5C40.68,48.83,13.44,60.28.72,69.06a3.39,3.39,0,0,0,1.81.71l2.59.35c14.3-8.94,41.7-19.41,62.06-21a1.72,1.72,0,0,0,.34,0,1.64,1.64,0,0,0,.57-.11l.66,0,2.6-.15q1.4-1.67,2.68-3.43c-1.83.06-3.66.14-5.5.27l-.9.07A151.29,151.29,0,0,0,42.08,38C52.3,35.73,65.14,35.65,78.9,37.72Zm-11.27-17v-.6l2.3-2.4v5.38Zm2,2.67H64.25l2.38-2.3h.6Zm-2.4-3.67h-.6l-2.38-2.3h5.38Zm-1,.4v.6L64,23.12V17.74Zm.18,6.53L64.25,24.8v-.29h5.38v4.84C68.5,28.42,67.43,27.52,66.43,26.67Zm.76-18a1.42,1.42,0,1,1,2.84,0v2.67h-.32a2.73,2.73,0,0,0-.8-1.86h0a2.73,2.73,0,0,0-1.71-.78ZM68,10l-.78.75V9.64A1.79,1.79,0,0,1,68,10Zm-.78-.52V9.24a2.18,2.18,0,0,1,1.07.44l-.14.14A2,2,0,0,0,67.25,9.44Zm1.17.9a1.79,1.79,0,0,1,.36,1H67.37Zm.15-.14.14-.13a2.19,2.19,0,0,1,.47,1.29H69A2,2,0,0,0,68.56,10.2ZM70,12.43,64.11,16.2V12.43ZM65.7,9.88l-.15-.13a2.19,2.19,0,0,1,1.12-.51v.2A2,2,0,0,0,65.7,9.88Zm1-.23v1.08L65.85,10A1.8,1.8,0,0,1,66.67,9.65Zm-.11,1.71H65.18a1.8,1.8,0,0,1,.3-.94Zm-1.59,0h-.19a2.2,2.2,0,0,1,.4-1.2l.15.13A2,2,0,0,0,65,11.36ZM63.83,8.68a1.42,1.42,0,1,1,2.84,0v0A2.73,2.73,0,0,0,65,9.58h0a2.73,2.73,0,0,0-.69,1.75h-.41Z"/></g></g></svg>