<svg xmlns="http://www.w3.org/2000/svg" viewBox="0 0 89.5 71.12"><defs><style>.cls-1{fill:none;}.cls-2{fill:#00385a;}.cls-3{fill:#fff;}</style></defs><title>Asset 6</title><g id="Layer_2" data-name="Layer 2"><g id="Calque_1" data-name="Calque 1"><path class="cls-1" d="M61,58.61c-.45.34-.91.66-1.37,1a7.08,7.08,0,0,0,1.23-.84Z"/><path class="cls-2" d="M30.58,25.92a14.8,14.8,0,0,0,5.27,7.39,14.55,14.55,0,0,0,5.76,2.63.51.51,0,0,1,.29.21c.34.56.66,1.13,1,1.7.55,1,1.09,1.91,1.67,2.85a.94.94,0,0,0,1.7,0c1-1.62,1.88-3.26,2.83-4.88a.58.58,0,0,1,.29-.25,15.09,15.09,0,0,0,8.6-7.3,14.71,14.71,0,0,0,1.45-9.37,15,15,0,0,0-7.83-10.7A14.72,14.72,0,0,0,42.5,6.69a15,15,0,0,0-8.2,4c-.58.71-1.21,1.39-1.74,2.13a14.48,14.48,0,0,0-2.64,7.24A14.72,14.72,0,0,0,30.58,25.92ZM46.28,10.18a2.48,2.48,0,1,1-2.48,2.48A2.48,2.48,0,0,1,46.28,10.18Zm-5,8.32a17.19,17.19,0,0,1,4-.58,3.92,3.92,0,0,1,1.09.16,1.3,1.3,0,0,1,1,1.61c-.15.93-.35,1.85-.54,2.78-.51,2.46-1,4.91-1.53,7.37-.16.79.16,1.21,1,1.28l1.34.09a3.26,3.26,0,0,1-.07.51.37.37,0,0,1-.2.23,14.32,14.32,0,0,1-4.64.57A1.74,1.74,0,0,1,41,30.3c.32-1.8.71-3.59,1.08-5.38.3-1.49.61-3,.9-4.47.14-.73,0-1-.77-1.06-.48-.05-1-.06-1.44-.09C40.7,18.69,40.73,18.62,41.27,18.5Z"/><path class="cls-2" d="M87.41,1.35C72.72-.56,58.11-1,43.95,3.72a20.77,20.77,0,0,1,3.12.16c6.49.83,11.09,4.45,13.74,10.38A17.21,17.21,0,0,1,60,30.14Q52.81,43.52,45.64,56.92c-.26.47-.52.94-.89,1.6-1.47-2.72-2.84-5.25-4.2-7.78-3.6-6.69-7.17-13.4-10.79-20.08C26,23.73,26.15,17,30.89,10.6a19.77,19.77,0,0,1,1.48-1.76c-11.78,6.7-20.27,16.8-25.69,30-.5,1.21-1.09,2.36-1.59,3.56s-.94,2.43-1.49,3.83C2.17,52.72.37,59.37,0,66.31c-.12,2.22.53,3.11,2.56,3.41,17.16,2.51,33.67,2.12,48.64-5.17l-1.93.17c-1.54.11-3.09,0-4.63,0a44.22,44.22,0,0,1-14-1.66,16,16,0,0,1-4.22-1.87c-2.67-1.76-2.67-3.95,0-5.67A23.55,23.55,0,0,1,35,52.66c.93-.18,1.88-.29,2.82-.41.32,0,.79-.2.8.38s-.43.38-.71.41a25.33,25.33,0,0,0-7.57,1.89c-1.08.5-2.36,1-2.38,2.37s1.29,2,2.4,2.49a29.53,29.53,0,0,0,9.83,2.11,49.93,49.93,0,0,0,16.4-1.17,12.57,12.57,0,0,0,3-1.14c.46-.32.91-.64,1.37-1a1.6,1.6,0,0,0-.14-2.67c-1.66-1.4-3.73-1.87-5.77-2.34-1.16-.26-2.34-.39-3.51-.59-.27,0-.73.08-.64-.45.06-.34.36-.39.66-.35,3.89.56,7.76,1.16,11.24,3.17a5.71,5.71,0,0,1,1.12.88l.53-.43c8.4-7.16,14.19-16.24,18.37-26.3A94.54,94.54,0,0,0,89.41,4.7C89.63,2.94,89.64,1.64,87.41,1.35Z"/><path class="cls-3" d="M56.57,60.74a49.93,49.93,0,0,1-16.4,1.17,29.53,29.53,0,0,1-9.83-2.11c-1.11-.49-2.42-1-2.4-2.49s1.3-1.87,2.38-2.37A25.33,25.33,0,0,1,37.89,53c.28,0,.72.08.71-.41s-.48-.42-.8-.38c-.94.12-1.89.23-2.82.41a23.55,23.55,0,0,0-8.5,2.88c-2.71,1.72-2.7,3.91,0,5.67a16,16,0,0,0,4.22,1.87,44.22,44.22,0,0,0,14,1.66c1.55,0,3.1.09,4.63,0l1.93-.17a61.18,61.18,0,0,0,8.4-5A12.57,12.57,0,0,1,56.57,60.74Z"/><path class="cls-3" d="M51.57,52.22c-.29,0-.6,0-.66.35-.09.53.37.4.64.45,1.17.2,2.36.33,3.51.59,2,.47,4.11.93,5.77,2.34A1.6,1.6,0,0,1,61,58.61c1-.74,2-1.52,3-2.34a5.71,5.71,0,0,0-1.12-.88C59.33,53.38,55.46,52.78,51.57,52.22Z"/><path class="cls-3" d="M42.19,19.39c.73.08.91.33.77,1.06-.3,1.49-.6,3-.9,4.47-.36,1.79-.75,3.58-1.08,5.38a1.74,1.74,0,0,0,1.76,2.2,14.32,14.32,0,0,0,4.64-.57.37.37,0,0,0,.2-.23,3.26,3.26,0,0,0,.07-.51l-1.34-.09c-.82-.07-1.14-.48-1-1.28.51-2.46,1-4.91,1.53-7.37.19-.92.39-1.85.54-2.78a1.3,1.3,0,0,0-1-1.61,3.92,3.92,0,0,0-1.09-.16,17.19,17.19,0,0,0-4,.58c-.54.12-.57.19-.51.81C41.23,19.34,41.71,19.34,42.19,19.39Z"/><circle class="cls-3" cx="46.28" cy="12.66" r="2.48"/><path class="cls-3" d="M29.76,30.67C33.38,37.34,37,44.05,40.55,50.74c1.36,2.53,2.73,5.05,4.2,7.78.37-.66.64-1.13.89-1.6Q52.83,43.53,60,30.14a17.21,17.21,0,0,0,.79-15.89C58.16,8.32,53.56,4.7,47.07,3.88a20.77,20.77,0,0,0-3.12-.16q-1.38.46-2.76,1a63.61,63.61,0,0,0-8.82,4.14,19.77,19.77,0,0,0-1.48,1.76C26.15,17,26,23.73,29.76,30.67ZM34.3,10.73a15,15,0,0,1,8.2-4,14.79,14.79,0,0,1,13.49,5,14.46,14.46,0,0,1,3.43,7.22,14.79,14.79,0,0,1-5.08,13.89,14.87,14.87,0,0,1-5,2.78.58.58,0,0,0-.29.25c-.95,1.63-1.87,3.26-2.83,4.88a.94.94,0,0,1-1.7,0c-.58-.94-1.11-1.89-1.67-2.85-.33-.57-.65-1.13-1-1.7a.51.51,0,0,0-.29-.21,14.55,14.55,0,0,1-5.76-2.63,14.88,14.88,0,0,1-5.92-13.2,14.48,14.48,0,0,1,2.64-7.24C33.09,12.11,33.72,11.44,34.3,10.73Z"/></g></g></svg>