<svg width="36" height="44" viewBox="0 0 36 44" fill="none" xmlns="http://www.w3.org/2000/svg">
<path fill-rule="evenodd" clip-rule="evenodd" d="M36 18C36 32 18 44 18 44C18 44 0 32 0 18C1.48134e-07 8.05887 8.05887 0 18 0C27.9411 0 36 8.05887 36 18Z" fill="#E25316"/>
<path d="M19.9964 22.74H15.8964L15.0164 26H12.2164L16.3764 12.94H19.6364L23.7764 26H20.8764L19.9964 22.74ZM19.4364 20.62L19.0764 19.28C18.9164 18.6933 18.6764 17.7733 18.3564 16.52L17.9764 15.04H17.8964C17.4964 16.76 17.1431 18.1733 16.8364 19.28L16.4764 20.62H19.4364Z" fill="white"/>
</svg>
