<svg xmlns="http://www.w3.org/2000/svg" viewBox="0 0 156.7399 149.8458">
  <g fill="currentColor">
    <path d="M156.74 33.5843a19.7545 19.7545 0 0 0-5.7863-13.9693 19.7537 19.7537 0 0 0-13.9693-5.7863h-4.6232v-5.927a7.9055 7.9055 0 0 0-2.3137-5.588A7.9055 7.9055 0 0 0 124.4595 0h-11.1813a7.9031 7.9031 0 0 0-5.588 2.3137 7.901 7.901 0 0 0-2.315 5.588v5.927H51.3647v-5.927a7.901 7.901 0 0 0-2.315-5.588A7.903 7.903 0 0 0 43.4617 0H32.2803a7.9055 7.9055 0 0 0-5.588 2.3137 7.9055 7.9055 0 0 0-2.3137 5.588v5.927h-4.6231A19.7545 19.7545 0 0 0 5.7863 19.615 19.7537 19.7537 0 0 0 0 33.5843v96.5059a19.756 19.756 0 0 0 5.7863 13.9707 19.7585 19.7585 0 0 0 13.9693 5.7848h117.228a19.759 19.759 0 0 0 13.9693-5.7848 19.7547 19.7547 0 0 0 5.7863-13.9707zM113.2776 7.9017h11.2021v19.7556h-11.202zm-80.9978 0H43.482v19.7556H32.28Zm116.5578 122.2058.001.001a11.8547 11.8547 0 0 1-3.4727 8.3813 11.8534 11.8534 0 0 1-8.3812 3.4712H19.757a11.8535 11.8535 0 0 1-8.3813-3.4712 11.8547 11.8547 0 0 1-3.4727-8.3813V57.5072h140.9383zm0-80.4827L7.903 49.6262V33.6245a11.8523 11.8523 0 0 1 3.4727-8.3813 11.849 11.849 0 0 1 8.3813-3.4726h4.6027v5.927c0 2.096.8337 4.1052 2.315 5.588a7.903 7.903 0 0 0 5.588 2.3137H43.465h-.0014a7.903 7.903 0 0 0 5.588-2.3137 7.901 7.901 0 0 0 2.315-5.588v-5.927h54.0104v5.927a7.901 7.901 0 0 0 2.315 5.588 7.9031 7.9031 0 0 0 5.588 2.3137h11.2022-.001a7.903 7.903 0 0 0 5.588-2.3137 7.9068 7.9068 0 0 0 2.315-5.588v-5.927h4.6028a11.849 11.849 0 0 1 8.3812 3.4726 11.8522 11.8522 0 0 1 3.4727 8.3813z"/>
    <path d="M35.028 127.2644h86.6882a3.9554 3.9554 0 0 0 2.7946-1.1561 3.9553 3.9553 0 0 0 1.1562-2.7947V75.9003a3.9554 3.9554 0 0 0-1.1562-2.7947 3.9553 3.9553 0 0 0-2.7946-1.1562H35.028c-2.1828 0-3.9508 1.768-3.9508 3.9508v47.4133a3.9555 3.9555 0 0 0 1.1562 2.7947 3.9553 3.9553 0 0 0 2.7947 1.1562zm62.1101-47.4133h20.6252v15.8048H97.138zm0 23.7063h20.6252v15.8048H97.138zM67.5048 79.8511h21.7318v15.8048H67.5048zm0 23.7063h21.7318v15.8048H67.5048ZM38.9781 79.8511h20.6252v15.8048H38.978Zm0 23.7063h20.6252v15.8048H38.978Z"/>
  </g>
</svg>
