<svg xmlns="http://www.w3.org/2000/svg" viewBox="0 0 187.8739 166.5404">
  <g fill="currentColor">
    <path d="M163.575 28.647h-39.3136V15.0153c0-8.2974-6.7165-15.0139-15.0139-15.0139L78.4292 0c-8.2973 0-15.0139 6.7165-15.0139 15.0139v13.6317l-39.3135.0014C10.8656 28.647 0 39.5115 0 52.7487v78.6271c0 13.2363 10.866 24.1018 24.1018 24.1018h7.112v4.9389c0 3.3583 2.7657 6.1239 6.1238 6.1239 3.3583 0 6.124-2.7657 6.124-6.1239v-4.9389h100.9508v4.9389c0 3.3583 2.7657 6.1239 6.1239 6.1239 3.3581 0 6.1238-2.7657 6.1238-6.1239v-4.9389h7.112c13.2363 0 24.1018-10.8659 24.1018-24.1018v-78.627c-.197-13.2373-11.0627-24.1018-24.299-24.1018ZM75.4651 15.0153c0-1.5807 1.3835-2.9628 2.9627-2.9628h30.8183c1.5807 0 2.9628 1.3836 2.9628 2.9628V28.647H75.4637Zm100.1606 116.3602c0 6.7165-5.3343 12.0509-12.0509 12.0509H24.1007c-6.7165 0-12.0509-5.3344-12.0509-12.051v-78.627c0-6.7166 5.3344-12.051 12.051-12.051h139.4741c6.7166 0 12.051 5.3344 12.051 12.051z"/>
    <path d="M146.9803 66.9727H40.6953c-3.3582 0-6.1238 2.7657-6.1238 6.1239s2.7657 6.1239 6.1239 6.1239h106.2849c3.3582 0 6.1238-2.7657 6.1238-6.1239-.197-3.3569-2.7657-6.1239-6.1238-6.1239zm0 38.1283H40.6953c-3.3582 0-6.1238 2.7657-6.1238 6.1238 0 3.3582 2.7657 6.1239 6.1239 6.1239h106.2849c3.3582 0 6.1238-2.7657 6.1238-6.1239-.197-3.3582-2.7657-6.1238-6.1238-6.1238z"/>
  </g>
</svg>
