<svg width="36" height="44" viewBox="0 0 36 44" fill="none" xmlns="http://www.w3.org/2000/svg">
<path fill-rule="evenodd" clip-rule="evenodd" d="M36 18C36 32 18 44 18 44C18 44 0 32 0 18C1.48134e-07 8.05887 8.05887 0 18 0C27.9411 0 36 8.05887 36 18Z" fill="#4FAD79"/>
<path d="M13.2616 12.94H16.8816C18.935 12.94 20.5283 13.48 21.6616 14.56C22.8083 15.64 23.3816 17.26 23.3816 19.42C23.3816 21.58 22.815 23.22 21.6816 24.34C20.5616 25.4467 19.015 26 17.0416 26H13.2616V12.94ZM16.7216 23.78C19.2816 23.78 20.5616 22.3267 20.5616 19.42C20.5616 17.9133 20.2283 16.8267 19.5616 16.16C18.9083 15.4933 17.9616 15.16 16.7216 15.16H16.0016V23.78H16.7216Z" fill="white"/>
</svg>
