<svg width="36" height="44" viewBox="0 0 36 44" fill="none" xmlns="http://www.w3.org/2000/svg">
<path fill-rule="evenodd" clip-rule="evenodd" d="M36 18C36 32 18 44 18 44C18 44 0 32 0 18C1.48134e-07 8.05887 8.05887 0 18 0C27.9411 0 36 8.05887 36 18Z" fill="#395BB2"/>
<circle cx="18" cy="19" r="16" fill="#395BB2"/>
<path fill-rule="evenodd" clip-rule="evenodd" d="M10.3145 8.33337H19.9622C25.2789 8.33337 27.3393 11.6925 27.3393 15.1515C27.3393 18.6284 25.2789 22.84 19.9622 22.84H15.0067V29.6667H10.3145V8.33337ZM15.0067 18.5734H18.6769C20.858 18.5734 22.8006 18.0976 22.801 15.3678C22.801 12.6547 20.858 12.1734 18.6769 12.1734H15.0067V18.5734Z" fill="white"/>
</svg>
