<svg xmlns="http://www.w3.org/2000/svg" viewBox="0 0 174.653 99.58">
  <path fill="currentColor" d="M23.584.002C10.592.002 0 10.597 0 23.462 0 35.559 9.275 45.56 21.114 46.797c5.05 10.215 10.225 17.31 15.805 21.854 5.922 4.825 12.41 6.65 18.645 6.05 12.47-1.2 23.383-10.647 34.08-19.572 10.694-8.922 21.204-17.388 30.126-18.891 4.46-.751 8.49-.137 13.026 3.025 3.767 2.625 7.862 7.19 12.039 14.261-9.983 2.742-17.41 11.799-17.41 22.534 0 12.945 10.653 23.521 23.644 23.521 12.928 0 23.584-10.576 23.584-23.521 0-12.079-9.353-22.13-21.175-23.336h-.062c-5.132-9.492-10.353-15.969-16.051-19.94-4.547-3.168-9.445-4.597-14.2-4.692-1.584-.032-3.144.047-4.692.308C106.09 30.485 95.235 40.19 84.58 49.08c-10.655 8.89-21.06 16.881-29.757 17.719-4.348.419-8.391-.533-12.965-4.26-3.868-3.151-7.987-8.46-12.223-16.422C39.696 43.43 47.168 34.299 47.168 23.46 47.168 10.596 36.576 0 23.584 0zm0 7.901c8.74 0 15.68 7 15.68 15.558 0 8.651-6.94 15.558-15.68 15.558-8.74 0-15.68-6.906-15.68-15.558 0-8.557 6.94-15.558 15.68-15.558zm127.487 52.6c8.646 0 15.68 7.018 15.68 15.557 0 8.633-7.034 15.619-15.68 15.619-8.74 0-15.743-6.987-15.743-15.619 0-8.538 7.003-15.558 15.743-15.558z"/>
</svg>
