<svg xmlns="http://www.w3.org/2000/svg" viewBox="0 0 6.295 8.0699">
  <g fill="currentColor">
    <path d="m3.4725 5.7516-.1849-.5606c-.0358-.1083-.1173-.198-.2255-.2478l-.5884-.2649.9102-1.6266.6726.3334a.4564.4564 0 0 0 .3327.0288l.459-.135zm2.065-3.5382-1.2352.3628-.5109-.253-1.2465-.618-.406.7296-1.1197 2.012c-.0792.1426-.0653.32.0488.4532.0411.048.095.0851.1536.1122l1.2882.5934.3885 1.1778-.6262 1.1257.333.1649.4514-.8115.1628.4934c.0716.2172.3164.3384.5465.2709.2303-.0676.3588-.2987.2872-.5158l-.2375-.7195 1.7253-3.1013.441-.1294c.2304-.0679.3589-.2987.2873-.516-.072-.2172-.3164-.3385-.5468-.2709M3.9901 1.6043c.4574-.1345.7126-.5932.5701-1.0249C4.418.1477 3.9317-.093 3.4743.0411c-.4573.1345-.7125.5935-.57 1.0251.1424.4314.6284.6726 1.0858.5381M.694 4.5035l1.6302-2.9259c-.4269-.2118-.9548-.057-1.1793.3459L.3275 3.3907c-.2245.4027-.0604.901.3664 1.1128"/>
    <path d="M.0445 7.2259c-.112.2015-.03.4506.1836.5562.2133.106.4774.0283.5894-.173l1.1518-2.0703-.773-.3832Z"/>
  </g>
</svg>
