<?xml version="1.0" encoding="UTF-8" standalone="no"?>
<svg
   xmlns:dc="http://purl.org/dc/elements/1.1/"
   xmlns:cc="http://creativecommons.org/ns#"
   xmlns:rdf="http://www.w3.org/1999/02/22-rdf-syntax-ns#"
   xmlns:svg="http://www.w3.org/2000/svg"
   xmlns="http://www.w3.org/2000/svg"
   id="svg8"
   version="1.1"
   viewBox="0 0 6.2950363 8.0698957">
  <defs
     id="defs2" />
  <metadata
     id="metadata5">
    <rdf:RDF>
      <cc:Work
         rdf:about="">
        <dc:format>image/svg+xml</dc:format>
        <dc:type
           rdf:resource="http://purl.org/dc/dcmitype/StillImage" />
        <dc:title></dc:title>
      </cc:Work>
    </rdf:RDF>
  </metadata>
  <g
     transform="translate(-52.037006,-154.62577)"
     id="layer1">
    <g
       transform="matrix(0.31151952,0,0,0.29399013,-36.410452,35.851814)"
       id="layer1-3"
       style="fill:#ffffff;fill-opacity:1">
      <g
         transform="matrix(0.81524806,0,0,-0.81524806,295.08823,423.55639)"
         id="g3288"
         style="fill:#ffffff;fill-opacity:1">
        <path
           d="M 0,0 -0.728,2.339 C -0.869,2.791 -1.19,3.165 -1.616,3.373 L -3.933,4.478 -0.349,11.265 2.3,9.874 C 2.549,9.743 2.823,9.676 3.099,9.676 c 0.172,0 0.344,0.026 0.511,0.078 l 1.808,0.563 z M 8.132,14.763 3.268,13.249 1.256,14.305 -3.653,16.883 -5.252,13.839 -9.661,5.444 c -0.312,-0.595 -0.257,-1.335 0.192,-1.891 0.162,-0.2 0.374,-0.355 0.605,-0.468 l 5.073,-2.476 1.53,-4.914 -2.466,-4.697 1.311,-0.688 1.778,3.386 0.641,-2.059 c 0.282,-0.906 1.246,-1.412 2.152,-1.13 0.907,0.282 1.413,1.246 1.131,2.152 l -0.935,3.002 6.794,12.94 1.737,0.54 c 0.907,0.283 1.413,1.246 1.131,2.153 -0.283,0.906 -1.246,1.412 -2.153,1.13"
           id="path3290"
           style="fill:#ffffff;fill-opacity:1;fill-rule:nonzero" />
      </g>
      <path
         d="m 296.75,409.45 c 1.4683,-0.45736 2.2876,-2.0177 1.8302,-3.486 -0.45654,-1.4683 -2.0177,-2.2876 -3.486,-1.831 -1.4683,0.45736 -2.2876,2.0186 -1.8302,3.4868 0.45736,1.4674 2.0177,2.2876 3.486,1.8302"
         id="path3294"
         style="fill:#ffffff;fill-opacity:1;fill-rule:nonzero" />
      <g
         transform="matrix(0.81524806,0,0,-0.81524806,286.16827,419.31131)"
         id="g3296"
         style="fill:#ffffff;fill-opacity:1">
        <path
           d="M 0,0 6.42,12.208 C 4.739,13.092 2.66,12.446 1.776,10.765 L -1.443,4.643 C -2.327,2.963 -1.681,0.884 0,0"
           id="path3298"
           style="fill:#ffffff;fill-opacity:1;fill-rule:nonzero" />
      </g>
      <g
         transform="matrix(0.81524806,0,0,-0.81524806,284.08352,428.57105)"
         id="g3300"
         style="fill:#ffffff;fill-opacity:1">
        <path
           d="m 0,0 c -0.441,-0.841 -0.118,-1.88 0.723,-2.321 0.84,-0.442 1.88,-0.118 2.321,0.722 L 7.58,7.039 4.536,8.638 Z"
           id="path3302"
           style="fill:#ffffff;fill-opacity:1;fill-rule:nonzero" />
      </g>
    </g>
  </g>
  <style
     type="text/css"
     id="style2">
	.st0{fill:#FFFFFF;}
</style>
</svg>
