<?xml version="1.0" encoding="utf-8"?>
<!-- Generator: Adobe Illustrator 21.1.0, SVG Export Plug-In . SVG Version: 6.00 Build 0)  -->
<svg version="1.1" id="Layer_1" xmlns="http://www.w3.org/2000/svg" xmlns:xlink="http://www.w3.org/1999/xlink" x="0px" y="0px"
	 viewBox="0 0 64 64" style="enable-background:new 0 0 64 64;" xml:space="preserve">
<style type="text/css">
	.st0{fill:#A44A80;}
	.st1{fill:#645973;}
</style>
<path class="st0" d="M13.4,27.1c-0.5,0.2-1.1,0.5-1.6,0.6c-0.4,0.1-0.8,0.1-1.3,0.1c0-0.4-0.1-0.9,0-1.3c1.2-3,2.5-6,3.8-8.9
	c0.8-1.8,1.6-3.7,2.4-5.5c0.2-0.4,0.6-0.6,0.9-0.9c0.3,0.3,0.7,0.5,0.9,0.9c2.1,4.8,4.2,9.6,6.2,14.4c0.2,0.4,0,0.8,0,1.3
	c-0.4,0-0.9,0-1.3-0.1c-0.6-0.2-1.1-0.4-1.6-0.6c-0.1,0-0.2,0-0.3,0c0,0.1,0.1,0.2,0.1,0.3c2.3,3.7,4.6,7.4,6.9,11.1
	c0.2,0.3,0.4,0.5,0.5,0.8c0.1,0.3,0.1,0.7,0.1,1c-0.4,0-0.8,0.2-1.1,0.1c-1.4-0.5-2.8-1.1-4.2-1.7c-0.1,0-0.2,0-0.3,0
	c0,0.1,0.1,0.1,0.1,0.2c1.8,3.5,3.6,7,5.4,10.5c0.3,0.6,0.3,1.3,0.4,1.9c-0.6-0.1-1.3-0.3-1.9-0.4c-2.6-0.8-5.3-1.6-7.9-2.4
	c-0.3,0-0.6,0-0.8-0.1c-0.4-0.3-1-0.8-0.1-1.2c2.7,0.5,5.5,0.9,8.2,1.4c-1.7-3.2-3.5-6.6-5.2-10c-0.2-0.4-0.2-1-0.3-1.5
	c0.5,0,1-0.2,1.5-0.1c1.1,0.2,2.2,0.6,3.5,1c-0.4-0.7-0.7-1.1-0.9-1.5c-2-3.2-4-6.3-6-9.5c-0.3-0.4-0.3-1-0.4-1.5
	c0.5,0,1.1-0.2,1.6-0.1c0.6,0.1,1.3,0.3,2,0.5c-1.7-4-3.4-7.9-5.1-12c-1.8,4.1-3.4,8-5.1,12c0.9-0.2,1.6-0.5,2.3-0.6
	c0.4-0.1,0.9,0.1,1.4,0.2c-0.1,0.4-0.1,0.9-0.3,1.2c-2.1,3.4-4.3,6.8-6.4,10.1c-0.2,0.3-0.3,0.6-0.6,1.1c1.2-0.4,2.2-0.7,3.2-0.9
	c0.6-0.1,1.2,0,1.7,0.1c-0.1,0.5-0.1,1.1-0.4,1.6c-1.6,3.1-3.2,6.2-4.9,9.3c-0.1,0.3-0.2,0.6-0.4,0.9c1.5-0.4,2.7-0.9,4.1-1.2
	c1.4-0.3,2.8-0.4,4.2-0.5c0.1,0.3,0.4,0.7,0.3,0.8c-0.2,0.3-0.6,0.4-0.9,0.6c-3.2,0.5-6.3,1.3-9.1,2.9c-0.3,0.1-0.7,0-1,0
	c0-0.4-0.1-0.9,0.1-1.2c1.6-3.1,3.3-6.3,4.9-9.4c0.3-0.6,0.6-1.2,0.8-1.8c0-0.1,0.1-0.1,0.1-0.2c-0.1,0-0.2,0-0.3,0
	c-1.3,0.5-2.6,1.1-3.9,1.5c-0.4,0.2-1,0.1-1.4,0.1c0.1-0.5,0.1-1,0.3-1.3c2.2-3.5,4.4-7,6.7-10.6c0.2-0.3,0.4-0.7,0.6-1.1
	c0-0.1,0.1-0.2,0.1-0.3C13.6,27.1,13.5,27.1,13.4,27.1z"/>
<path class="st0" d="M45.5,51.8c-3.7-0.2-6.9-1.5-9.4-4.3c-3.1-3.5-3.2-8.2-0.1-12.4c0.6-0.8,0.9-1.6,0.9-2.6
	c-0.1-2.4,0.8-4.5,2.3-6.3c0.3-0.4,0.5-0.9,0.5-1.4c0-3.8,2.9-6.8,6.7-6.8c3.8,0,6.7,2.9,6.8,6.7c0,0.6,0.2,1.2,0.6,1.6
	c1.6,2,2.4,4.3,2.3,6.8c0,0.4,0.1,0.9,0.3,1.2c6.4,8,0.9,15.6-6.8,17.1c-0.7,0.1-1.4,0.2-2.1,0.2c0-0.5,0-1,0-1.4
	c1-0.2,2.1-0.2,3-0.6c1.5-0.6,3.1-1.3,4.3-2.4c3.8-3.2,3.8-7.9,0.3-12.2c-0.3-0.4-0.6-1.1-0.6-1.6c0.2-2.3-0.3-4.4-1.8-6.2
	c-0.8-0.9-1.1-1.7-1.1-2.9c0.1-3.1-2.5-5.3-5.7-5c-2.8,0.2-5,2.9-4.7,5.7c0,0.5-0.2,1.2-0.5,1.6c-1.7,1.8-2.5,3.9-2.3,6.4
	c0.1,0.9-0.2,1.5-0.7,2.2c-4.1,5-2.8,10.9,3,13.6c1.5,0.7,3.3,0.9,4.9,1.3C45.5,50.8,45.5,51.3,45.5,51.8z"/>
<path class="st1" d="M36.8,8.4c2.8,0.5,4.3,2.2,3.8,4.4c-0.3,1.7-1.6,2.9-3.4,2.9c-3.9,0.1-7.7,0.1-11.6,0c-2,0-3.5-1.6-3.6-3.5
	c-0.1-1.9,1.3-3.5,3.4-3.7c0.2,0,0.3-0.1,0.5-0.1c0.9-4,2.6-5.7,5.7-5.6C34.4,2.9,36.2,4.8,36.8,8.4z M31.3,14.1
	c1.9,0,3.8,0.1,5.7-0.1c0.7-0.1,1.6-0.7,1.9-1.3c0.2-0.5,0-1.6-0.5-2.1c-0.4-0.4-1.4-0.4-2.1-0.5c-0.4-0.1-0.9,0.1-1.2-0.1
	C34.9,10,34.9,9.4,35,9c0.3-1.6,0-2.9-1.3-3.9c-1.3-1-2.9-1.1-4.2-0.2c-1.4,0.9-2,2.4-1.6,4.2c0.1,0.4,0,0.8-0.2,1.1
	c-0.1,0.2-0.7,0.1-1,0c-0.9-0.4-1.8-0.3-2.4,0.4c-0.4,0.6-0.6,1.5-0.4,2.2c0.2,0.9,1.1,1.3,2,1.3C27.7,14.1,29.5,14.1,31.3,14.1z"/>
<path class="st1" d="M15.8,48.3c0.3-0.2,0.7-0.3,0.9-0.6c0.1-0.1-0.2-0.5-0.3-0.8c0.8,0,1.6,0,2.3,0c-0.9,0.5-0.3,0.9,0.1,1.2
	c0.2,0.2,0.5,0.1,0.8,0.1c-0.4,0-0.7,0-1.2,0.1c0,1.9,0,3.8,0,5.6c0,2.1,0.1,4.2,0,6.2c0,0.5-0.5,1.3-0.8,1.4
	c-0.8,0.1-0.8-0.7-0.8-1.3c0-3.6,0-7.2,0-10.9C16.8,48.7,16.7,48.2,15.8,48.3z"/>
<path class="st1" d="M47.3,50.3c0,0.5,0,1,0,1.4c0,2.1-0.1,4.2-0.1,6.3c0,0.7,0.1,1.5,0,2.2c-0.1,0.5-0.5,1.3-0.8,1.4
	c-0.9,0.1-0.8-0.7-0.8-1.3c0-2.4,0-4.8,0-7.2c0-0.5,0-0.9-0.1-1.4c0-0.5,0-1,0-1.5c0-1.2,0.1-2.4,0.1-3.5c0.5,0,1,0,1.6,0
	C47.2,47.9,47.2,49.1,47.3,50.3z"/>
<path class="st0" d="M47.1,46c0,0.3,0,0.5,0,0.8c-0.5,0-1,0-1.6,0c-0.9-1-1.8-2-2.7-3.1c-0.4-0.4-0.8-0.9-0.2-1.5
	c0.6-0.5,0.9-0.1,1.2,0.4c0.4,0.6,1.1,1,1.6,1.5C46,44.7,46.6,45.4,47.1,46z"/>
<path class="st1" d="M47.1,46c-0.5-0.6-1-1.2-1.6-1.9c0-3.5,0-7,0-10.5c0-0.9-0.2-1.6-0.8-2.2c-0.7-0.7-1.4-1.5-2-2.3
	c-0.2-0.3-0.1-0.8-0.1-1.3c0.4,0.1,1,0.1,1.3,0.3c0.5,0.4,0.9,1,1.6,1.7c0-1.3-0.1-2.2,0-3.1c0.1-0.4,0.5-0.8,0.8-1.2
	c0.3,0.4,0.8,0.8,0.8,1.2c0.1,2.8,0,5.7,0,8.5c0,0.4,0,0.9,0,1.7c0.7-0.8,1.2-1.4,1.7-1.8c0.3-0.2,0.8-0.1,1.2-0.2
	c0,0.4,0,0.8-0.1,1.2c0,0.1-0.1,0.1-0.2,0.2c-2.6,2-3,4.7-2.7,7.8C47.2,44.7,47.1,45.4,47.1,46z"/>
</svg>
